<?xml version="1.0" encoding="utf-8"?>
<!-- Generator: Adobe Illustrator 21.1.0, SVG Export Plug-In . SVG Version: 6.00 Build 0)  -->
<svg version="1.1" xmlns="http://www.w3.org/2000/svg" xmlns:xlink="http://www.w3.org/1999/xlink" x="0px" y="0px" width="1473px"
	 height="82.2px" viewBox="0 0 1473 82.2" style="enable-background:new 0 0 1473 82.2;" xml:space="preserve">
<style type="text/css">
	.st0{display:none;}
	.st1{display:inline;fill:#EBEBEB;}
</style>
<g id="Layer_2" class="st0">
	<rect x="-1494.6" y="-320.3" class="st1" width="1919" height="1078.2"/>
</g>
<g id="Layer_1">
	<g>
		<polygon points="179.1,0 160.8,21 139.8,21 132.8,0 91.1,0 74.8,21 55.3,21 48.4,0 19,0 6.2,53.8 197,53.8 209.8,0 		"/>
		<path d="M4.2,61.3L0.2,77.1c0,0,0,0,0,0c-0.7,2.8,1.1,5.1,4,5.1h180.2c2.9,0,5.9-2.3,6.6-5.1l4-15.7H4.2z"/>
	</g>
	<g>
		<path d="M274.1-0.1h101.7l12.5,13.4l-3,12.6L370.4,40l9.7,10.4l-4.4,18.5l-14.2,13.4H254.5L274.1-0.1z M292.8,48.1L288.6,66h54.6
			l3.7-3.5l2.7-11.6l-2.7-2.9H292.8z M296.7,32.3h54.5l3-2.9l2.6-10.5l-3.2-3.5h-52.8L296.7,32.3z"/>
		<path d="M429.2,55.2l-6.4,27h-30.3l19.5-82.3h99.9L526.1,15l-4.2,18l-17.6,16.6l3.8,14.1h11.8l-4.4,18.5h-31.8l-7.3-27H429.2z
			 M433.4,37.4h53.4l4.7-4.4l3-11.9l-4.1-4.4h-52L433.4,37.4z"/>
		<path d="M548.6-0.1h79.9l-4.3,17.9h-24.7l-11,46.5h24.7l-4.2,17.9h-79.9l4.2-17.9h24.9l11-46.5h-24.9L548.6-0.1z"/>
		<path d="M664.8,63.1h60.5l-4.5,19.1H630l19.5-82.3h30.3L664.8,63.1z"/>
		<path d="M772.7,63.1h60.5l-4.5,19.1h-90.8l19.5-82.3h30.3L772.7,63.1z"/>
		<path d="M861-0.1h79.9l-4.3,17.9h-24.7l-11,46.5h24.7l-4.2,17.9h-79.9l4.2-17.9h24.9l11-46.5h-24.9L861-0.1z"/>
		<path d="M995.9-0.1h43.1l26.6,82.3h-31.8l-4.6-15.3h-54.4l-11.5,15.3h-32.1L995.9-0.1z M988.7,48.4h34.9l-9.8-33.2L988.7,48.4z"/>
		<path d="M1097.6-0.1h43.8l26.5,62.1l14.8-62.1h27.1l-19.6,82.3h-43.9l-26.4-62.4l-14.8,62.4H1078L1097.6-0.1z"/>
		<path d="M1215.8,65.9l11.7-49.6l17.3-16.3h88l15.3,16.3l-3.7,16h-30.4l1.7-7.2l-6.3-6.7h-46.8l-7.1,6.7l-7.6,32l6.3,6.7h46.8
			l7.1-6.7l1.8-7.8h30.4l-4,16.6l-17.3,16.3h-88L1215.8,65.9z"/>
		<path d="M1372-0.1h99.9l-4,16.7h-69.5l-3.7,15.7h63.1l-4,16.6h-63.1l-3.9,16.6h69.9l-3.9,16.7h-100.3L1372-0.1z"/>
	</g>
</g>
</svg>
