<?xml version="1.0" encoding="utf-8"?>
<!-- Generator: Adobe Illustrator 21.1.0, SVG Export Plug-In . SVG Version: 6.00 Build 0)  -->
<svg version="1.1" xmlns="http://www.w3.org/2000/svg" xmlns:xlink="http://www.w3.org/1999/xlink" x="0px" y="0px" width="1607px"
	 height="82.2px" viewBox="0 0 1607 82.2" style="enable-background:new 0 0 1607 82.2;" xml:space="preserve">
<style type="text/css">
	.st0{display:none;}
	.st1{display:inline;fill:#EBEBEB;}
</style>
<g id="Layer_2" class="st0">
	<rect x="-1494.6" y="-320.3" class="st1" width="1919" height="1078.2"/>
</g>
<g id="Layer_1">
	<g>
		<polygon points="179.1,0 160.8,21 139.8,21 132.8,0 91.1,0 74.8,21 55.3,21 48.4,0 19,0 6.2,53.8 197,53.8 209.8,0 		"/>
		<path d="M4.2,61.3L0.2,77.1c0,0,0,0,0,0c-0.7,2.8,1.1,5.1,4,5.1h180.2c2.9,0,5.9-2.3,6.6-5.1l4-15.7H4.2z"/>
	</g>
	<g>
		<path d="M274-0.1h101.1l15.3,16.3l-11.7,49.6l-17.3,16.3H254.5L274-0.1z M343.4,63.7l7.1-6.7l7.6-32l-6.3-6.7h-51.9l-10.8,45.3
			H343.4z"/>
		<path d="M412.4-0.1h79.9L488,17.8h-24.7l-11,46.5h24.7l-4.2,17.9H393l4.2-17.9h24.9l11-46.5h-24.9L412.4-0.1z"/>
		<path d="M492.3,68.2l2.4-10.1H525l-1.1,4.3l2.1,2.3h53l1.9-1.8l2.1-9.3l-1.1-1.2l-68.5-4.8l-12.5-13.4l4.5-19.2l16.1-15.1h87.9
			l13.1,14L620,24h-30.3l1.1-4.5l-2.1-2.3h-52l-1.9,1.8l-2,8.9l1.1,1.2l68.5,4.8L615,47.2L610.2,67l-16.1,15.1h-88.7L492.3,68.2z"/>
		<path d="M702.1,19l-15.1,63.2h-30.3L671.8,19h-41.1l4.5-19.1h112.6L743.3,19H702.1z"/>
		<path d="M759.2-0.1h79.9l-4.3,17.9h-24.7l-11,46.5h24.7l-4.2,17.9h-79.9l4.2-17.9h24.9l11-46.5h-24.9L759.2-0.1z"/>
		<path d="M860.3-0.1H904L930.5,62l14.8-62.1h27.1l-19.6,82.3h-43.9l-26.4-62.4l-14.8,62.4h-27.1L860.3-0.1z"/>
		<path d="M978.5,65.9l11.7-49.6l17.3-16.3h88l15.3,16.3l-3.7,16h-30.4l1.7-7.2l-6.3-6.7h-46.8l-7.1,6.7l-7.6,32l6.3,6.7h46.8
			l7.1-6.7l1.8-7.8h30.4l-4,16.6l-17.3,16.3h-88L978.5,65.9z"/>
		<path d="M1192,19l-15.1,63.2h-30.3l15.1-63.2h-41.1l4.5-19.1h112.6l-4.5,19.1H1192z"/>
		<path d="M1249.1-0.1h79.9l-4.3,17.9H1300l-11,46.5h24.7l-4.2,17.9h-79.9l4.2-17.9h24.9l11-46.5h-24.9L1249.1-0.1z"/>
		<path d="M1331.5,65.9l11.7-49.6l17.3-16.3h90.4l15.3,16.3l-11.7,49.6l-17.3,16.3h-90.4L1331.5,65.9z M1419.3,63.7l7.1-6.7l7.6-32
			l-6.3-6.7h-49.1l-7.1,6.7l-7.6,32l6.3,6.7H1419.3z"/>
		<path d="M1492-0.1h43.8l26.5,62.1L1577-0.1h27.1l-19.6,82.3h-43.9l-26.4-62.4l-14.8,62.4h-27.1L1492-0.1z"/>
	</g>
</g>
</svg>
