  0
SECTION
  2
HEADER
  9
$ACADVER
  1
AC1024
  9
$ACADMAINTVER
 70
     6
  9
$DWGCODEPAGE
  3
UNDEFINED
  9
$INSBASE
 10
0.0
 20
0.0
 30
0.0
  9
$EXTMIN
 10
1.000000000000000E+20
 20
1.000000000000000E+20
 30
1.000000000000000E+20
  9
$EXTMAX
 10
-1.000000000000000E+20
 20
-1.000000000000000E+20
 30
-1.000000000000000E+20
  9
$LIMMIN
 10
0.0
 20
0.0
  9
$LIMMAX
 10
12.0
 20
9.0
  9
$ORTHOMODE
 70
     0
  9
$REGENMODE
 70
     1
  9
$FILLMODE
 70
     1
  9
$QTEXTMODE
 70
     0
  9
$MIRRTEXT
 70
     1
  9
$LTSCALE
 40
1.0
  9
$ATTMODE
 70
     1
  9
$TEXTSIZE
 40
0.2
  9
$TRACEWID
 40
0.05
  9
$TEXTSTYLE
  7
Standard
  9
$CLAYER
  8
0
  9
$CELTYPE
  6
ByLayer
  9
$CECOLOR
 62
   256
  9
$CELTSCALE
 40
1.0
  9
$DISPSILH
 70
     0
  9
$DIMSCALE
 40
1.0
  9
$DIMASZ
 40
0.18
  9
$DIMEXO
 40
0.0625
  9
$DIMDLI
 40
0.38
  9
$DIMRND
 40
0.0
  9
$DIMDLE
 40
0.0
  9
$DIMEXE
 40
0.18
  9
$DIMTP
 40
0.0
  9
$DIMTM
 40
0.0
  9
$DIMTXT
 40
0.18
  9
$DIMCEN
 40
0.09
  9
$DIMTSZ
 40
0.0
  9
$DIMTOL
 70
     0
  9
$DIMLIM
 70
     0
  9
$DIMTIH
 70
     1
  9
$DIMTOH
 70
     1
  9
$DIMSE1
 70
     0
  9
$DIMSE2
 70
     0
  9
$DIMTAD
 70
     0
  9
$DIMZIN
 70
     0
  9
$DIMBLK
  1

  9
$DIMASO
 70
     1
  9
$DIMSHO
 70
     1
  9
$DIMPOST
  1

  9
$DIMAPOST
  1

  9
$DIMALT
 70
     0
  9
$DIMALTD
 70
     2
  9
$DIMALTF
 40
25.4
  9
$DIMLFAC
 40
1.0
  9
$DIMTOFL
 70
     0
  9
$DIMTVP
 40
0.0
  9
$DIMTIX
 70
     0
  9
$DIMSOXD
 70
     0
  9
$DIMSAH
 70
     0
  9
$DIMBLK1
  1

  9
$DIMBLK2
  1

  9
$DIMSTYLE
  2
Standard
  9
$DIMCLRD
 70
     0
  9
$DIMCLRE
 70
     0
  9
$DIMCLRT
 70
     0
  9
$DIMTFAC
 40
1.0
  9
$DIMGAP
 40
0.09
  9
$DIMJUST
 70
     0
  9
$DIMSD1
 70
     0
  9
$DIMSD2
 70
     0
  9
$DIMTOLJ
 70
     1
  9
$DIMTZIN
 70
     0
  9
$DIMALTZ
 70
     0
  9
$DIMALTTZ
 70
     0
  9
$DIMUPT
 70
     0
  9
$DIMDEC
 70
     4
  9
$DIMTDEC
 70
     4
  9
$DIMALTU
 70
     2
  9
$DIMALTTD
 70
     2
  9
$DIMTXSTY
  7
Standard
  9
$DIMAUNIT
 70
     0
  9
$DIMADEC
 70
     0
  9
$DIMALTRND
 40
0.0
  9
$DIMAZIN
 70
     0
  9
$DIMDSEP
 70
    46
  9
$DIMATFIT
 70
     3
  9
$DIMFRAC
 70
     0
  9
$DIMLDRBLK
  1

  9
$DIMLUNIT
 70
     2
  9
$DIMLWD
 70
    -2
  9
$DIMLWE
 70
    -2
  9
$DIMTMOVE
 70
     0
  9
$DIMFXL
 40
1.0
  9
$DIMFXLON
 70
     0
  9
$DIMJOGANG
 40
0.7853981633974483
  9
$DIMTFILL
 70
     0
  9
$DIMTFILLCLR
 70
     0
  9
$DIMARCSYM
 70
     0
  9
$DIMLTYPE
  6

  9
$DIMLTEX1
  6

  9
$DIMLTEX2
  6

  9
$DIMTXTDIRECTION
 70
     0
  9
$LUNITS
 70
     2
  9
$LUPREC
 70
     4
  9
$SKETCHINC
 40
0.1
  9
$FILLETRAD
 40
0.5
  9
$AUNITS
 70
     0
  9
$AUPREC
 70
     0
  9
$MENU
  1
.
  9
$ELEVATION
 40
0.0
  9
$PELEVATION
 40
0.0
  9
$THICKNESS
 40
0.0
  9
$LIMCHECK
 70
     0
  9
$CHAMFERA
 40
0.5
  9
$CHAMFERB
 40
0.5
  9
$CHAMFERC
 40
1.0
  9
$CHAMFERD
 40
0.0
  9
$SKPOLY
 70
     0
  9
$TDCREATE
 40
2457947.663217581
  9
$TDUCREATE
 40
2457947.913217593
  9
$TDUPDATE
 40
2457947.663217581
  9
$TDUUPDATE
 40
2457947.913217593
  9
$TDINDWG
 40
0.0000000116
  9
$TDUSRTIMER
 40
0.0000000116
  9
$USRTIMER
 70
     1
  9
$ANGBASE
 50
0.0
  9
$ANGDIR
 70
     0
  9
$PDMODE
 70
     0
  9
$PDSIZE
 40
0.0
  9
$PLINEWID
 40
0.0
  9
$SPLFRAME
 70
     0
  9
$SPLINETYPE
 70
     6
  9
$SPLINESEGS
 70
     8
  9
$HANDSEED
  5
12C
  9
$SURFTAB1
 70
     6
  9
$SURFTAB2
 70
     6
  9
$SURFTYPE
 70
     6
  9
$SURFU
 70
     6
  9
$SURFV
 70
     6
  9
$UCSBASE
  2

  9
$UCSNAME
  2

  9
$UCSORG
 10
0.0
 20
0.0
 30
0.0
  9
$UCSXDIR
 10
1.0
 20
0.0
 30
0.0
  9
$UCSYDIR
 10
0.0
 20
1.0
 30
0.0
  9
$UCSORTHOREF
  2

  9
$UCSORTHOVIEW
 70
     0
  9
$UCSORGTOP
 10
0.0
 20
0.0
 30
0.0
  9
$UCSORGBOTTOM
 10
0.0
 20
0.0
 30
0.0
  9
$UCSORGLEFT
 10
0.0
 20
0.0
 30
0.0
  9
$UCSORGRIGHT
 10
0.0
 20
0.0
 30
0.0
  9
$UCSORGFRONT
 10
0.0
 20
0.0
 30
0.0
  9
$UCSORGBACK
 10
0.0
 20
0.0
 30
0.0
  9
$PUCSBASE
  2

  9
$PUCSNAME
  2

  9
$PUCSORG
 10
0.0
 20
0.0
 30
0.0
  9
$PUCSXDIR
 10
1.0
 20
0.0
 30
0.0
  9
$PUCSYDIR
 10
0.0
 20
1.0
 30
0.0
  9
$PUCSORTHOREF
  2

  9
$PUCSORTHOVIEW
 70
     0
  9
$PUCSORGTOP
 10
0.0
 20
0.0
 30
0.0
  9
$PUCSORGBOTTOM
 10
0.0
 20
0.0
 30
0.0
  9
$PUCSORGLEFT
 10
0.0
 20
0.0
 30
0.0
  9
$PUCSORGRIGHT
 10
0.0
 20
0.0
 30
0.0
  9
$PUCSORGFRONT
 10
0.0
 20
0.0
 30
0.0
  9
$PUCSORGBACK
 10
0.0
 20
0.0
 30
0.0
  9
$USERI1
 70
     0
  9
$USERI2
 70
     0
  9
$USERI3
 70
     0
  9
$USERI4
 70
     0
  9
$USERI5
 70
     0
  9
$USERR1
 40
0.0
  9
$USERR2
 40
0.0
  9
$USERR3
 40
0.0
  9
$USERR4
 40
0.0
  9
$USERR5
 40
0.0
  9
$WORLDVIEW
 70
     1
  9
$SHADEDGE
 70
     3
  9
$SHADEDIF
 70
    70
  9
$TILEMODE
 70
     1
  9
$MAXACTVP
 70
    64
  9
$PINSBASE
 10
0.0
 20
0.0
 30
0.0
  9
$PLIMCHECK
 70
     0
  9
$PEXTMIN
 10
1.000000000000000E+20
 20
1.000000000000000E+20
 30
1.000000000000000E+20
  9
$PEXTMAX
 10
-1.000000000000000E+20
 20
-1.000000000000000E+20
 30
-1.000000000000000E+20
  9
$PLIMMIN
 10
0.0
 20
0.0
  9
$PLIMMAX
 10
12.0
 20
9.0
  9
$UNITMODE
 70
     0
  9
$VISRETAIN
 70
     1
  9
$PLINEGEN
 70
     0
  9
$PSLTSCALE
 70
     1
  9
$TREEDEPTH
 70
  3020
  9
$CMLSTYLE
  2
Standard
  9
$CMLJUST
 70
     0
  9
$CMLSCALE
 40
1.0
  9
$PROXYGRAPHICS
 70
     1
  9
$MEASUREMENT
 70
     0
  9
$CELWEIGHT
370
    -1
  9
$ENDCAPS
280
     0
  9
$JOINSTYLE
280
     0
  9
$LWDISPLAY
290
     1
  9
$INSUNITS
 70
     1
  9
$HYPERLINKBASE
  1

  9
$STYLESHEET
  1

  9
$XEDIT
290
     1
  9
$CEPSNTYPE
380
     0
  9
$PSTYLEMODE
290
     1
  9
$FINGERPRINTGUID
  2
{B81C8A8E-DB05-30B1-67D6-BB3BA2CEC59F}
  9
$VERSIONGUID
  2
{FAEB1C32-E019-11D5-929B-00C0DF256EC4}
  9
$EXTNAMES
290
     1
  9
$PSVPSCALE
 40
0.0
  9
$OLESTARTUP
290
     0
  9
$SORTENTS
280
   127
  9
$INDEXCTL
280
     0
  9
$HIDETEXT
280
     1
  9
$XCLIPFRAME
280
     2
  9
$HALOGAP
280
     0
  9
$OBSCOLOR
 70
   257
  9
$OBSLTYPE
280
     0
  9
$INTERSECTIONDISPLAY
280
     0
  9
$INTERSECTIONCOLOR
 70
   257
  9
$DIMASSOC
280
     2
  9
$PROJECTNAME
  1

  9
$CAMERADISPLAY
290
     0
  9
$LENSLENGTH
 40
50.0
  9
$CAMERAHEIGHT
 40
0.0
  9
$STEPSPERSEC
 40
2.0
  9
$STEPSIZE
 40
6.0
  9
$3DDWFPREC
 40
2.0
  9
$PSOLWIDTH
 40
0.25
  9
$PSOLHEIGHT
 40
4.0
  9
$LOFTANG1
 40
1.570796326794897
  9
$LOFTANG2
 40
1.570796326794897
  9
$LOFTMAG1
 40
0.0
  9
$LOFTMAG2
 40
0.0
  9
$LOFTPARAM
 70
     7
  9
$LOFTNORMALS
280
     1
  9
$LATITUDE
 40
37.795
  9
$LONGITUDE
 40
-122.394
  9
$NORTHDIRECTION
 40
0.0
  9
$TIMEZONE
 70
 -8000
  9
$LIGHTGLYPHDISPLAY
280
     1
  9
$TILEMODELIGHTSYNCH
280
     1
  9
$CMATERIAL
347
3C
  9
$SOLIDHIST
280
     1
  9
$SHOWHIST
280
     1
  9
$DWFFRAME
280
     2
  9
$DGNFRAME
280
     2
  9
$REALWORLDSCALE
290
     1
  9
$INTERFERECOLOR
 62
   256
  9
$CSHADOW
280
     0
  9
$SHADOWPLANELOCATION
 40
0.0
  0
ENDSEC
  0
SECTION
  2
CLASSES
  0
CLASS
  1
ACDBDICTIONARYWDFLT
  2
AcDbDictionaryWithDefault
  3
ObjectDBX Classes
 90
        0
 91
        4
280
     0
281
     0
  0
CLASS
  1
VISUALSTYLE
  2
AcDbVisualStyle
  3
ObjectDBX Classes
 90
     4095
 91
        4
280
     0
281
     0
  0
CLASS
  1
MATERIAL
  2
AcDbMaterial
  3
ObjectDBX Classes
 90
     1153
 91
        4
280
     0
281
     0
  0
CLASS
  1
SUN
  2
AcDbSun
  3
SCENEOE
 90
     1024
 91
        4
280
     0
281
     0
  0
ENDSEC
  0
SECTION
  2
TABLES
  0
TABLE
  2
VPORT
  5
8
330
0
100
AcDbSymbolTable
 70
     1
  0
VPORT
  5
29
330
8
100
AcDbSymbolTableRecord
100
AcDbViewportTableRecord
  2
*Active
 70
     0
 10
0.0
 20
0.0
 11
1.0
 21
1.0
 12
0.0
 22
0.0
 13
0.0
 23
0.0
 14
0.5
 24
0.5
 15
0.5
 25
0.5
 16
0.0
 26
0.0
 36
1.0
 17
31.50699027777778
 27
-83.79490138888889
 37
0.0
 40
1.141613888888898
 41
19.55070185726331
 42
50.0
 43
0.0
 44
0.0
 50
0.0
 51
0.0
 71
     0
 72
   100
 73
     1
 74
     3
 75
     0
 76
     0
 77
     0
 78
     0
281
     0
 65
     1
110
0.0
120
0.0
130
0.0
111
1.0
121
0.0
131
0.0
112
0.0
122
1.0
132
0.0
 79
     0
146
0.0
 60
     3
 61
     5
292
     1
282
     1
141
0.0
142
0.0
 63
   250
361
3F
  0
ENDTAB
  0
TABLE
  2
LTYPE
  5
5
330
0
100
AcDbSymbolTable
 70
     1
  0
LTYPE
  5
14
330
5
100
AcDbSymbolTableRecord
100
AcDbLinetypeTableRecord
  2
ByBlock
 70
     0
  3

 72
    65
 73
     0
 40
0.0
  0
LTYPE
  5
15
330
5
100
AcDbSymbolTableRecord
100
AcDbLinetypeTableRecord
  2
ByLayer
 70
     0
  3

 72
    65
 73
     0
 40
0.0
  0
LTYPE
  5
16
330
5
100
AcDbSymbolTableRecord
100
AcDbLinetypeTableRecord
  2
Continuous
 70
     0
  3
Solid line
 72
    65
 73
     0
 40
0.0
  0
ENDTAB
  0
TABLE
  2
LAYER
  5
2
330
0
100
AcDbSymbolTable
 70
     3
  0
LAYER
  5
10
330
2
100
AcDbSymbolTableRecord
100
AcDbLayerTableRecord
  2
0
 70
     0
 62
     7
  6
Continuous
370
    -3
390
F
347
3E
  0
LAYER
  5
40
330
2
100
AcDbSymbolTableRecord
100
AcDbLayerTableRecord
  2
Layer 2
 70
     1
 62
     7
  6
Continuous
370
    -3
390
F
347
3E
  0
LAYER
  5
49
330
2
100
AcDbSymbolTableRecord
100
AcDbLayerTableRecord
  2
Layer 1
 70
     0
 62
     7
  6
Continuous
370
    -3
390
F
347
3E
  0
ENDTAB
  0
TABLE
  2
STYLE
  5
3
330
0
100
AcDbSymbolTable
 70
     1
  0
STYLE
  5
11
330
3
100
AcDbSymbolTableRecord
100
AcDbTextStyleTableRecord
  2
Standard
 70
     0
 40
0.0
 41
1.0
 50
0.0
 71
     0
 42
0.2
  3
txt
  4

  0
ENDTAB
  0
TABLE
  2
VIEW
  5
6
330
0
100
AcDbSymbolTable
 70
     0
  0
ENDTAB
  0
TABLE
  2
UCS
  5
7
330
0
100
AcDbSymbolTable
 70
     0
  0
ENDTAB
  0
TABLE
  2
APPID
  5
9
330
0
100
AcDbSymbolTable
 70
     1
  0
APPID
  5
12
330
9
100
AcDbSymbolTableRecord
100
AcDbRegAppTableRecord
  2
ACAD
 70
     0
  0
ENDTAB
  0
TABLE
  2
DIMSTYLE
  5
A
330
0
100
AcDbSymbolTable
 70
     1
100
AcDbDimStyleTable
  0
DIMSTYLE
105
27
330
A
100
AcDbSymbolTableRecord
100
AcDbDimStyleTableRecord
  2
Standard
 70
     0
178
     0
340
11
  0
ENDTAB
  0
TABLE
  2
BLOCK_RECORD
  5
1
330
0
100
AcDbSymbolTable
 70
     3
  0
BLOCK_RECORD
  5
1F
330
1
100
AcDbSymbolTableRecord
100
AcDbBlockTableRecord
  2
*Model_Space
340
22
 70
     0
280
     1
281
     0
  0
BLOCK_RECORD
  5
1B
330
1
100
AcDbSymbolTableRecord
100
AcDbBlockTableRecord
  2
*Paper_Space
340
1E
 70
     0
280
     1
281
     0
  0
BLOCK_RECORD
  5
23
330
1
100
AcDbSymbolTableRecord
100
AcDbBlockTableRecord
  2
*Paper_Space0
340
26
 70
     0
280
     1
281
     0
  0
BLOCK_RECORD
  5
4A
330
1
100
AcDbSymbolTableRecord
100
AcDbBlockTableRecord
  2
block 2
340
0
102
{BLKREFS
331
4B
102
}
 70
     0
280
     1
281
     0
  0
BLOCK_RECORD
  5
60
330
1
100
AcDbSymbolTableRecord
100
AcDbBlockTableRecord
  2
block 3
340
0
102
{BLKREFS
331
61
102
}
 70
     0
280
     1
281
     0
  0
ENDTAB
  0
ENDSEC
  0
SECTION
  2
BLOCKS
  0
BLOCK
  5
20
330
1F
100
AcDbEntity
  8
0
100
AcDbBlockBegin
  2
*Model_Space
 70
     0
 10
0.0
 20
0.0
 30
0.0
  3
*Model_Space
  1

  0
ENDBLK
  5
21
330
1F
100
AcDbEntity
  8
0
100
AcDbBlockEnd
  0
BLOCK
  5
1C
330
1B
100
AcDbEntity
 67
     1
  8
0
100
AcDbBlockBegin
  2
*Paper_Space
 70
     0
 10
0.0
 20
0.0
 30
0.0
  3
*Paper_Space
  1

  0
ENDBLK
  5
1D
330
1B
100
AcDbEntity
 67
     1
  8
0
100
AcDbBlockEnd
  0
BLOCK
  5
24
330
23
100
AcDbEntity
  8
0
100
AcDbBlockBegin
  2
*Paper_Space0
 70
     0
 10
0.0
 20
0.0
 30
0.0
  3
*Paper_Space0
  1

  0
ENDBLK
  5
25
330
23
100
AcDbEntity
  8
0
100
AcDbBlockEnd
  0
BLOCK
  5
4C
330
4A
100
AcDbEntity
  8
0
100
AcDbBlockBegin
  2
block 2
 70
     0
 10
0.0
 20
0.0
 30
0.0
  3
block 2
  1

  0
POLYLINE
  5
4E
330
4A
100
AcDbEntity
  8
Layer 1
370
     0
100
AcDb2dPolyline
 66
     1
 10
0.0
 20
0.0
 30
0.0
  0
VERTEX
  5
4F
330
4E
100
AcDbEntity
  8
Layer 1
370
     0
100
AcDbVertex
100
AcDb2dVertex
 10
22.83430277777777
 20
-83.22409444444443
 30
0.0
  0
VERTEX
  5
50
330
4E
100
AcDbEntity
  8
Layer 1
370
     0
100
AcDbVertex
100
AcDb2dVertex
 10
22.58060972222223
 20
-83.51611527777777
 30
0.0
  0
VERTEX
  5
51
330
4E
100
AcDbEntity
  8
Layer 1
370
     0
100
AcDbVertex
100
AcDb2dVertex
 10
22.28967083333333
 20
-83.51611527777777
 30
0.0
  0
VERTEX
  5
52
330
4E
100
AcDbEntity
  8
Layer 1
370
     0
100
AcDbVertex
100
AcDb2dVertex
 10
22.19147638888888
 20
-83.22409444444443
 30
0.0
  0
VERTEX
  5
53
330
4E
100
AcDbEntity
  8
Layer 1
370
     0
100
AcDbVertex
100
AcDb2dVertex
 10
21.61257777777779
 20
-83.22409444444443
 30
0.0
  0
VERTEX
  5
54
330
4E
100
AcDbEntity
  8
Layer 1
370
     0
100
AcDbVertex
100
AcDb2dVertex
 10
21.38645277777778
 20
-83.51611527777777
 30
0.0
  0
VERTEX
  5
55
330
4E
100
AcDbEntity
  8
Layer 1
370
     0
100
AcDbVertex
100
AcDb2dVertex
 10
21.11525694444445
 20
-83.51611527777777
 30
0.0
  0
VERTEX
  5
56
330
4E
100
AcDbEntity
  8
Layer 1
370
     0
100
AcDbVertex
100
AcDb2dVertex
 10
21.02010416666667
 20
-83.22409444444443
 30
0.0
  0
VERTEX
  5
57
330
4E
100
AcDbEntity
  8
Layer 1
370
     0
100
AcDbVertex
100
AcDb2dVertex
 10
20.61150416666667
 20
-83.22409444444443
 30
0.0
  0
VERTEX
  5
58
330
4E
100
AcDbEntity
  8
Layer 1
370
     0
100
AcDbVertex
100
AcDb2dVertex
 10
20.43286805555555
 20
-83.97070972222221
 30
0.0
  0
VERTEX
  5
59
330
4E
100
AcDbEntity
  8
Layer 1
370
     0
100
AcDbVertex
100
AcDb2dVertex
 10
23.08331527777778
 20
-83.97070972222221
 30
0.0
  0
VERTEX
  5
5A
330
4E
100
AcDbEntity
  8
Layer 1
370
     0
100
AcDbVertex
100
AcDb2dVertex
 10
23.26089166666667
 20
-83.22409444444443
 30
0.0
  0
VERTEX
  5
5B
330
4E
100
AcDbEntity
  8
Layer 1
370
     0
100
AcDbVertex
100
AcDb2dVertex
 10
22.83430277777777
 20
-83.22409444444443
 30
0.0
  0
SEQEND
  5
5D
330
4E
100
AcDbEntity
  8
Layer 1
370
     0
  0
HATCH
  5
5C
330
4A
100
AcDbEntity
  8
Layer 1
 62
     7
420
 16777215
100
AcDbHatch
 10
0.0
 20
0.0
 30
0.0
210
0.0
220
0.0
230
1.0
  2
SOLID
 70
     1
 71
     0
 91
        1
 92
        1
 93
       12
 72
     1
 10
22.83430277777777
 20
-83.22409444444443
 11
22.58060972222223
 21
-83.51611527777777
 72
     1
 10
22.58060972222223
 20
-83.51611527777777
 11
22.28967083333333
 21
-83.51611527777777
 72
     1
 10
22.28967083333333
 20
-83.51611527777777
 11
22.19147638888888
 21
-83.22409444444443
 72
     1
 10
22.19147638888888
 20
-83.22409444444443
 11
21.61257777777779
 21
-83.22409444444443
 72
     1
 10
21.61257777777779
 20
-83.22409444444443
 11
21.38645277777778
 21
-83.51611527777777
 72
     1
 10
21.38645277777778
 20
-83.51611527777777
 11
21.11525694444445
 21
-83.51611527777777
 72
     1
 10
21.11525694444445
 20
-83.51611527777777
 11
21.02010416666667
 21
-83.22409444444443
 72
     1
 10
21.02010416666667
 20
-83.22409444444443
 11
20.61150416666667
 21
-83.22409444444443
 72
     1
 10
20.61150416666667
 20
-83.22409444444443
 11
20.43286805555555
 21
-83.97070972222221
 72
     1
 10
20.43286805555555
 20
-83.97070972222221
 11
23.08331527777778
 21
-83.97070972222221
 72
     1
 10
23.08331527777778
 20
-83.97070972222221
 11
23.26089166666667
 21
-83.22409444444443
 72
     1
 10
23.26089166666667
 20
-83.22409444444443
 11
22.83430277777777
 21
-83.22409444444443
 97
        0
 75
     2
 76
     1
 98
        0
  0
SPLINE
  5
5E
330
4A
100
AcDbEntity
  8
Layer 1
370
     0
100
AcDbSpline
210
0.0
220
0.0
230
1.0
 70
    11
 71
     3
 72
    26
 73
    22
 74
     0
 42
0.0000000001
 43
0.0000000001
 12
1.0
 22
0.0
 32
0.0
 13
1.0
 23
0.0
 33
0.0
 40
0.0
 40
0.0
 40
0.0
 40
0.0
 40
1.0
 40
1.0
 40
1.0
 40
2.0
 40
2.0
 40
2.0
 40
3.0
 40
3.0
 40
3.0
 40
4.0
 40
4.0
 40
4.0
 40
5.0
 40
5.0
 40
5.0
 40
6.0
 40
6.0
 40
6.0
 40
7.0
 40
7.0
 40
7.0
 40
7.0
 10
20.40632361111112
 20
-84.07584305555555
 30
0.0
 10
20.40632361111112
 20
-84.07584305555555
 30
0.0
 10
20.34947777777779
 20
-84.29435972222223
 30
0.0
 10
20.34947777777779
 20
-84.29435972222223
 30
0.0
 10
20.34947777777779
 20
-84.29437361111111
 30
0.0
 10
20.34947777777779
 20
-84.29437361111111
 30
0.0
 10
20.34947777777779
 20
-84.29438749999998
 30
0.0
 10
20.33958194444444
 20
-84.33359583333333
 30
0.0
 10
20.3645986111111
 20
-84.36570833333333
 30
0.0
 10
20.40505416666666
 20
-84.36570833333333
 30
0.0
 10
20.40505416666666
 20
-84.36570833333333
 30
0.0
 10
22.90762638888888
 20
-84.36570833333333
 30
0.0
 10
22.90762638888888
 20
-84.36570833333333
 30
0.0
 10
22.94809027777779
 20
-84.36570833333333
 30
0.0
 10
22.98912083333335
 20
-84.33355416666667
 30
0.0
 10
22.9988013888889
 20
-84.29427638888889
 30
0.0
 10
22.9988013888889
 20
-84.29427638888889
 30
0.0
 10
23.05404027777778
 20
-84.07584305555555
 30
0.0
 10
23.05404027777778
 20
-84.07584305555555
 30
0.0
 10
23.05404027777778
 20
-84.07584305555555
 30
0.0
 10
20.40632361111112
 20
-84.07584305555555
 30
0.0
 10
20.40632361111112
 20
-84.07584305555555
 30
0.0
  0
HATCH
  5
5F
330
4A
100
AcDbEntity
  8
Layer 1
 62
     7
420
 16777215
100
AcDbHatch
 10
0.0
 20
0.0
 30
0.0
210
0.0
220
0.0
230
1.0
  2
SOLID
 70
     1
 71
     0
 91
        1
 92
        1
 93
        1
 72
     4
 94
        3
 73
     0
 74
     1
 95
       26
 96
       22
 40
0.0
 40
0.0
 40
0.0
 40
0.0
 40
1.0
 40
1.0
 40
1.0
 40
2.0
 40
2.0
 40
2.0
 40
3.0
 40
3.0
 40
3.0
 40
4.0
 40
4.0
 40
4.0
 40
5.0
 40
5.0
 40
5.0
 40
6.0
 40
6.0
 40
6.0
 40
7.0
 40
7.0
 40
7.0
 40
7.0
 10
20.40632361111112
 20
-84.07584305555555
 10
20.40632361111112
 20
-84.07584305555555
 10
20.34947777777779
 20
-84.29435972222223
 10
20.34947777777779
 20
-84.29435972222223
 10
20.34947777777779
 20
-84.29437361111111
 10
20.34947777777779
 20
-84.29437361111111
 10
20.34947777777779
 20
-84.29438749999998
 10
20.33958194444444
 20
-84.33359583333333
 10
20.3645986111111
 20
-84.36570833333333
 10
20.40505416666666
 20
-84.36570833333333
 10
20.40505416666666
 20
-84.36570833333333
 10
22.90762638888888
 20
-84.36570833333333
 10
22.90762638888888
 20
-84.36570833333333
 10
22.94809027777779
 20
-84.36570833333333
 10
22.98912083333335
 20
-84.33355416666667
 10
22.9988013888889
 20
-84.29427638888889
 10
22.9988013888889
 20
-84.29427638888889
 10
23.05404027777778
 20
-84.07584305555555
 10
23.05404027777778
 20
-84.07584305555555
 10
23.05404027777778
 20
-84.07584305555555
 10
20.40632361111112
 20
-84.07584305555555
 10
20.40632361111112
 20
-84.07584305555555
 97
        0
 97
        0
 75
     2
 76
     1
 98
        0
  0
ENDBLK
  5
4D
330
4A
100
AcDbEntity
  8
0
100
AcDbBlockEnd
  0
BLOCK
  5
62
330
60
100
AcDbEntity
  8
0
100
AcDbBlockBegin
  2
block 3
 70
     0
 10
0.0
 20
0.0
 30
0.0
  3
block 3
  1

  0
POLYLINE
  5
64
330
60
100
AcDbEntity
  8
Layer 1
370
     0
100
AcDb2dPolyline
 66
     1
 10
0.0
 20
0.0
 30
0.0
  0
VERTEX
  5
65
330
64
100
AcDbEntity
  8
Layer 1
370
     0
100
AcDbVertex
100
AcDb2dVertex
 10
24.15223524305555
 20
-83.22271050347221
 30
0.0
  0
VERTEX
  5
66
330
64
100
AcDbEntity
  8
Layer 1
370
     0
100
AcDbVertex
100
AcDb2dVertex
 10
25.556884765625
 20
-83.22271050347221
 30
0.0
  0
VERTEX
  5
67
330
64
100
AcDbEntity
  8
Layer 1
370
     0
100
AcDbVertex
100
AcDb2dVertex
 10
25.76993815104166
 20
-83.44965277777777
 30
0.0
  0
VERTEX
  5
68
330
64
100
AcDbEntity
  8
Layer 1
370
     0
100
AcDbVertex
100
AcDb2dVertex
 10
25.60686577690972
 20
-84.13875325520833
 30
0.0
  0
VERTEX
  5
69
330
64
100
AcDbEntity
  8
Layer 1
370
     0
100
AcDbVertex
100
AcDb2dVertex
 10
25.36606174045139
 20
-84.36569552951389
 30
0.0
  0
VERTEX
  5
6A
330
64
100
AcDbEntity
  8
Layer 1
370
     0
100
AcDbVertex
100
AcDb2dVertex
 10
23.88190375434028
 20
-84.36569552951389
 30
0.0
  0
VERTEX
  5
6B
330
64
100
AcDbEntity
  8
Layer 1
370
     0
100
AcDbVertex
100
AcDb2dVertex
 10
24.15223524305555
 20
-83.22271050347221
 30
0.0
  0
SEQEND
  5
6C
330
64
100
AcDbEntity
  8
Layer 1
370
     0
  0
POLYLINE
  5
6D
330
60
100
AcDbEntity
  8
Layer 1
370
     0
100
AcDb2dPolyline
 66
     1
 10
0.0
 20
0.0
 30
0.0
  0
VERTEX
  5
6E
330
6D
100
AcDbEntity
  8
Layer 1
370
     0
100
AcDbVertex
100
AcDb2dVertex
 10
25.11672634548611
 20
-84.10894097222221
 30
0.0
  0
VERTEX
  5
6F
330
6D
100
AcDbEntity
  8
Layer 1
370
     0
100
AcDbVertex
100
AcDb2dVertex
 10
25.21516927083333
 20
-84.01616753472221
 30
0.0
  0
VERTEX
  5
70
330
6D
100
AcDbEntity
  8
Layer 1
370
     0
100
AcDbVertex
100
AcDb2dVertex
 10
25.32017686631944
 20
-83.57223171657985
 30
0.0
  0
VERTEX
  5
71
330
6D
100
AcDbEntity
  8
Layer 1
370
     0
100
AcDbVertex
100
AcDb2dVertex
 10
25.23308648003472
 20
-83.47946506076389
 30
0.0
  0
VERTEX
  5
72
330
6D
100
AcDbEntity
  8
Layer 1
370
     0
100
AcDbVertex
100
AcDb2dVertex
 10
24.51254611545139
 20
-83.47946506076389
 30
0.0
  0
VERTEX
  5
73
330
6D
100
AcDbEntity
  8
Layer 1
370
     0
100
AcDbVertex
100
AcDb2dVertex
 10
24.36305067274305
 20
-84.10894097222221
 30
0.0
  0
VERTEX
  5
74
330
6D
100
AcDbEntity
  8
Layer 1
370
     0
100
AcDbVertex
100
AcDb2dVertex
 10
25.11672634548611
 20
-84.10894097222221
 30
0.0
  0
SEQEND
  5
75
330
6D
100
AcDbEntity
  8
Layer 1
370
     0
  0
HATCH
  5
76
330
60
100
AcDbEntity
  8
Layer 1
 62
   179
420
  2301728
100
AcDbHatch
 10
0.0
 20
0.0
 30
0.0
210
0.0
220
0.0
230
1.0
  2
SOLID
 70
     1
 71
     0
 91
        2
 92
        1
 93
        6
 72
     1
 10
24.15223524305555
 20
-83.22271050347221
 11
25.556884765625
 21
-83.22271050347221
 72
     1
 10
25.556884765625
 20
-83.22271050347221
 11
25.76993815104166
 21
-83.44965277777777
 72
     1
 10
25.76993815104166
 20
-83.44965277777777
 11
25.60686577690972
 21
-84.13875325520833
 72
     1
 10
25.60686577690972
 20
-84.13875325520833
 11
25.36606174045139
 21
-84.36569552951389
 72
     1
 10
25.36606174045139
 20
-84.36569552951389
 11
23.88190375434028
 21
-84.36569552951389
 72
     1
 10
23.88190375434028
 20
-84.36569552951389
 11
24.15223524305555
 21
-83.22271050347221
 97
        0
 92
        1
 93
        6
 72
     1
 10
25.11672634548611
 20
-84.10894097222221
 11
25.21516927083333
 21
-84.01616753472221
 72
     1
 10
25.21516927083333
 20
-84.01616753472221
 11
25.32017686631944
 21
-83.57223171657985
 72
     1
 10
25.32017686631944
 20
-83.57223171657985
 11
25.23308648003472
 21
-83.47946506076389
 72
     1
 10
25.23308648003472
 20
-83.47946506076389
 11
24.51254611545139
 21
-83.47946506076389
 72
     1
 10
24.51254611545139
 20
-83.47946506076389
 11
24.36305067274305
 21
-84.10894097222221
 72
     1
 10
24.36305067274305
 20
-84.10894097222221
 11
25.11672634548611
 21
-84.10894097222221
 97
        0
 75
     2
 76
     1
 98
        0
  0
POLYLINE
  5
77
330
60
100
AcDbEntity
  8
Layer 1
370
     0
100
AcDb2dPolyline
 66
     1
 10
0.0
 20
0.0
 30
0.0
  0
VERTEX
  5
78
330
77
100
AcDbEntity
  8
Layer 1
370
     0
100
AcDbVertex
100
AcDb2dVertex
 10
26.07537163628472
 20
-83.22271050347221
 30
0.0
  0
VERTEX
  5
79
330
77
100
AcDbEntity
  8
Layer 1
370
     0
100
AcDbVertex
100
AcDb2dVertex
 10
27.1851806640625
 20
-83.22271050347221
 30
0.0
  0
VERTEX
  5
7A
330
77
100
AcDbEntity
  8
Layer 1
370
     0
100
AcDbVertex
100
AcDb2dVertex
 10
27.125244140625
 20
-83.47118462456596
 30
0.0
  0
VERTEX
  5
7B
330
77
100
AcDbEntity
  8
Layer 1
370
     0
100
AcDbVertex
100
AcDb2dVertex
 10
26.78237575954861
 20
-83.47118462456596
 30
0.0
  0
VERTEX
  5
7C
330
77
100
AcDbEntity
  8
Layer 1
370
     0
100
AcDbVertex
100
AcDb2dVertex
 10
26.63022189670139
 20
-84.1172146267361
 30
0.0
  0
VERTEX
  5
7D
330
77
100
AcDbEntity
  8
Layer 1
370
     0
100
AcDbVertex
100
AcDb2dVertex
 10
26.97310384114583
 20
-84.1172146267361
 30
0.0
  0
VERTEX
  5
7E
330
77
100
AcDbEntity
  8
Layer 1
370
     0
100
AcDbVertex
100
AcDb2dVertex
 10
26.91484917534722
 20
-84.36569552951389
 30
0.0
  0
VERTEX
  5
7F
330
77
100
AcDbEntity
  8
Layer 1
370
     0
100
AcDbVertex
100
AcDb2dVertex
 10
25.80504014756944
 20
-84.36569552951389
 30
0.0
  0
VERTEX
  5
80
330
77
100
AcDbEntity
  8
Layer 1
370
     0
100
AcDbVertex
100
AcDb2dVertex
 10
25.86329481336805
 20
-84.1172146267361
 30
0.0
  0
VERTEX
  5
81
330
77
100
AcDbEntity
  8
Layer 1
370
     0
100
AcDbVertex
100
AcDb2dVertex
 10
26.20948621961805
 20
-84.1172146267361
 30
0.0
  0
VERTEX
  5
82
330
77
100
AcDbEntity
  8
Layer 1
370
     0
100
AcDbVertex
100
AcDb2dVertex
 10
26.36164008246528
 20
-83.47118462456596
 30
0.0
  0
VERTEX
  5
83
330
77
100
AcDbEntity
  8
Layer 1
370
     0
100
AcDbVertex
100
AcDb2dVertex
 10
26.01544867621528
 20
-83.47118462456596
 30
0.0
  0
VERTEX
  5
84
330
77
100
AcDbEntity
  8
Layer 1
370
     0
100
AcDbVertex
100
AcDb2dVertex
 10
26.07537163628472
 20
-83.22271050347221
 30
0.0
  0
SEQEND
  5
85
330
77
100
AcDbEntity
  8
Layer 1
370
     0
  0
HATCH
  5
86
330
60
100
AcDbEntity
  8
Layer 1
 62
   179
420
  2301728
100
AcDbHatch
 10
0.0
 20
0.0
 30
0.0
210
0.0
220
0.0
230
1.0
  2
SOLID
 70
     1
 71
     0
 91
        1
 92
        1
 93
       12
 72
     1
 10
26.07537163628472
 20
-83.22271050347221
 11
27.1851806640625
 21
-83.22271050347221
 72
     1
 10
27.1851806640625
 20
-83.22271050347221
 11
27.125244140625
 21
-83.47118462456596
 72
     1
 10
27.125244140625
 20
-83.47118462456596
 11
26.78237575954861
 21
-83.47118462456596
 72
     1
 10
26.78237575954861
 20
-83.47118462456596
 11
26.63022189670139
 21
-84.1172146267361
 72
     1
 10
26.63022189670139
 20
-84.1172146267361
 11
26.97310384114583
 21
-84.1172146267361
 72
     1
 10
26.97310384114583
 20
-84.1172146267361
 11
26.91484917534722
 21
-84.36569552951389
 72
     1
 10
26.91484917534722
 20
-84.36569552951389
 11
25.80504014756944
 21
-84.36569552951389
 72
     1
 10
25.80504014756944
 20
-84.36569552951389
 11
25.86329481336805
 21
-84.1172146267361
 72
     1
 10
25.86329481336805
 20
-84.1172146267361
 11
26.20948621961805
 21
-84.1172146267361
 72
     1
 10
26.20948621961805
 20
-84.1172146267361
 11
26.36164008246528
 21
-83.47118462456596
 72
     1
 10
26.36164008246528
 20
-83.47118462456596
 11
26.01544867621528
 21
-83.47118462456596
 72
     1
 10
26.01544867621528
 20
-83.47118462456596
 11
26.07537163628472
 21
-83.22271050347221
 97
        0
 75
     2
 76
     1
 98
        0
  0
POLYLINE
  5
87
330
60
100
AcDbEntity
  8
Layer 1
370
     0
100
AcDb2dPolyline
 66
     1
 10
0.0
 20
0.0
 30
0.0
  0
VERTEX
  5
88
330
87
100
AcDbEntity
  8
Layer 1
370
     0
100
AcDbVertex
100
AcDb2dVertex
 10
27.18511284722222
 20
-84.17188178168402
 30
0.0
  0
VERTEX
  5
89
330
87
100
AcDbEntity
  8
Layer 1
370
     0
100
AcDbVertex
100
AcDb2dVertex
 10
27.21857367621528
 20
-84.03108045789931
 30
0.0
  0
VERTEX
  5
8A
330
87
100
AcDbEntity
  8
Layer 1
370
     0
100
AcDbVertex
100
AcDb2dVertex
 10
27.63930935329861
 20
-84.03108045789931
 30
0.0
  0
VERTEX
  5
8B
330
87
100
AcDbEntity
  8
Layer 1
370
     0
100
AcDbVertex
100
AcDb2dVertex
 10
27.62406412760416
 20
-84.09071858723958
 30
0.0
  0
VERTEX
  5
8C
330
87
100
AcDbEntity
  8
Layer 1
370
     0
100
AcDbVertex
100
AcDb2dVertex
 10
27.65360514322916
 20
-84.12218560112846
 30
0.0
  0
VERTEX
  5
8D
330
87
100
AcDbEntity
  8
Layer 1
370
     0
100
AcDbVertex
100
AcDb2dVertex
 10
28.38906521267361
 20
-84.12218560112846
 30
0.0
  0
VERTEX
  5
8E
330
87
100
AcDbEntity
  8
Layer 1
370
     0
100
AcDbVertex
100
AcDb2dVertex
 10
28.41543240017361
 20
-84.09734429253471
 30
0.0
  0
VERTEX
  5
8F
330
87
100
AcDbEntity
  8
Layer 1
370
     0
100
AcDbVertex
100
AcDb2dVertex
 10
28.44485134548611
 20
-83.96813286675346
 30
0.0
  0
VERTEX
  5
90
330
87
100
AcDbEntity
  8
Layer 1
370
     0
100
AcDbVertex
100
AcDb2dVertex
 10
28.42930772569444
 20
-83.9515652126736
 30
0.0
  0
VERTEX
  5
91
330
87
100
AcDbEntity
  8
Layer 1
370
     0
100
AcDbVertex
100
AcDb2dVertex
 10
27.47760687934028
 20
-83.88531494140625
 30
0.0
  0
VERTEX
  5
92
330
87
100
AcDbEntity
  8
Layer 1
370
     0
100
AcDbVertex
100
AcDb2dVertex
 10
27.30343967013889
 20
-83.69978162977431
 30
0.0
  0
VERTEX
  5
93
330
87
100
AcDbEntity
  8
Layer 1
370
     0
100
AcDbVertex
100
AcDb2dVertex
 10
27.36612955729166
 20
-83.43307834201389
 30
0.0
  0
VERTEX
  5
94
330
87
100
AcDbEntity
  8
Layer 1
370
     0
100
AcDbVertex
100
AcDb2dVertex
 10
27.58935546875
 20
-83.22271050347221
 30
0.0
  0
VERTEX
  5
95
330
87
100
AcDbEntity
  8
Layer 1
370
     0
100
AcDbVertex
100
AcDb2dVertex
 10
28.81015353732639
 20
-83.22271050347221
 30
0.0
  0
VERTEX
  5
96
330
87
100
AcDbEntity
  8
Layer 1
370
     0
100
AcDbVertex
100
AcDb2dVertex
 10
28.99209255642361
 20
-83.41651746961806
 30
0.0
  0
VERTEX
  5
97
330
87
100
AcDbEntity
  8
Layer 1
370
     0
100
AcDbVertex
100
AcDb2dVertex
 10
28.95863172743055
 20
-83.55731879340277
 30
0.0
  0
VERTEX
  5
98
330
87
100
AcDbEntity
  8
Layer 1
370
     0
100
AcDbVertex
100
AcDb2dVertex
 10
28.53789605034722
 20
-83.55731879340277
 30
0.0
  0
VERTEX
  5
99
330
87
100
AcDbEntity
  8
Layer 1
370
     0
100
AcDbVertex
100
AcDb2dVertex
 10
28.5533447265625
 20
-83.49437798394096
 30
0.0
  0
VERTEX
  5
9A
330
87
100
AcDbEntity
  8
Layer 1
370
     0
100
AcDbVertex
100
AcDb2dVertex
 10
28.5238037109375
 20
-83.46289740668402
 30
0.0
  0
VERTEX
  5
9B
330
87
100
AcDbEntity
  8
Layer 1
370
     0
100
AcDbVertex
100
AcDb2dVertex
 10
27.80159505208333
 20
-83.46289740668402
 30
0.0
  0
VERTEX
  5
9C
330
87
100
AcDbEntity
  8
Layer 1
370
     0
100
AcDbVertex
100
AcDb2dVertex
 10
27.77524142795139
 20
-83.48774549696181
 30
0.0
  0
VERTEX
  5
9D
330
87
100
AcDbEntity
  8
Layer 1
370
     0
100
AcDbVertex
100
AcDb2dVertex
 10
27.74774848090278
 20
-83.61198594835069
 30
0.0
  0
VERTEX
  5
9E
330
87
100
AcDbEntity
  8
Layer 1
370
     0
100
AcDbVertex
100
AcDb2dVertex
 10
27.7633056640625
 20
-83.62854682074652
 30
0.0
  0
VERTEX
  5
9F
330
87
100
AcDbEntity
  8
Layer 1
370
     0
100
AcDbVertex
100
AcDb2dVertex
 10
28.71500651041666
 20
-83.69481065538194
 30
0.0
  0
VERTEX
  5
A0
330
87
100
AcDbEntity
  8
Layer 1
370
     0
100
AcDbVertex
100
AcDb2dVertex
 10
28.88917371961805
 20
-83.88033718532985
 30
0.0
  0
VERTEX
  5
A1
330
87
100
AcDbEntity
  8
Layer 1
370
     0
100
AcDbVertex
100
AcDb2dVertex
 10
28.82267252604166
 20
-84.15532090928819
 30
0.0
  0
VERTEX
  5
A2
330
87
100
AcDbEntity
  8
Layer 1
370
     0
100
AcDbVertex
100
AcDb2dVertex
 10
28.59944661458333
 20
-84.36569552951389
 30
0.0
  0
VERTEX
  5
A3
330
87
100
AcDbEntity
  8
Layer 1
370
     0
100
AcDbVertex
100
AcDb2dVertex
 10
27.3670654296875
 20
-84.36569552951389
 30
0.0
  0
VERTEX
  5
A4
330
87
100
AcDbEntity
  8
Layer 1
370
     0
100
AcDbVertex
100
AcDb2dVertex
 10
27.18511284722222
 20
-84.17188178168402
 30
0.0
  0
SEQEND
  5
A5
330
87
100
AcDbEntity
  8
Layer 1
370
     0
  0
HATCH
  5
A6
330
60
100
AcDbEntity
  8
Layer 1
 62
   179
420
  2301728
100
AcDbHatch
 10
0.0
 20
0.0
 30
0.0
210
0.0
220
0.0
230
1.0
  2
SOLID
 70
     1
 71
     0
 91
        1
 92
        1
 93
       28
 72
     1
 10
27.18511284722222
 20
-84.17188178168402
 11
27.21857367621528
 21
-84.03108045789931
 72
     1
 10
27.21857367621528
 20
-84.03108045789931
 11
27.63930935329861
 21
-84.03108045789931
 72
     1
 10
27.63930935329861
 20
-84.03108045789931
 11
27.62406412760416
 21
-84.09071858723958
 72
     1
 10
27.62406412760416
 20
-84.09071858723958
 11
27.65360514322916
 21
-84.12218560112846
 72
     1
 10
27.65360514322916
 20
-84.12218560112846
 11
28.38906521267361
 21
-84.12218560112846
 72
     1
 10
28.38906521267361
 20
-84.12218560112846
 11
28.41543240017361
 21
-84.09734429253471
 72
     1
 10
28.41543240017361
 20
-84.09734429253471
 11
28.44485134548611
 21
-83.96813286675346
 72
     1
 10
28.44485134548611
 20
-83.96813286675346
 11
28.42930772569444
 21
-83.9515652126736
 72
     1
 10
28.42930772569444
 20
-83.9515652126736
 11
27.47760687934028
 21
-83.88531494140625
 72
     1
 10
27.47760687934028
 20
-83.88531494140625
 11
27.30343967013889
 21
-83.69978162977431
 72
     1
 10
27.30343967013889
 20
-83.69978162977431
 11
27.36612955729166
 21
-83.43307834201389
 72
     1
 10
27.36612955729166
 20
-83.43307834201389
 11
27.58935546875
 21
-83.22271050347221
 72
     1
 10
27.58935546875
 20
-83.22271050347221
 11
28.81015353732639
 21
-83.22271050347221
 72
     1
 10
28.81015353732639
 20
-83.22271050347221
 11
28.99209255642361
 21
-83.41651746961806
 72
     1
 10
28.99209255642361
 20
-83.41651746961806
 11
28.95863172743055
 21
-83.55731879340277
 72
     1
 10
28.95863172743055
 20
-83.55731879340277
 11
28.53789605034722
 21
-83.55731879340277
 72
     1
 10
28.53789605034722
 20
-83.55731879340277
 11
28.5533447265625
 21
-83.49437798394096
 72
     1
 10
28.5533447265625
 20
-83.49437798394096
 11
28.5238037109375
 21
-83.46289740668402
 72
     1
 10
28.5238037109375
 20
-83.46289740668402
 11
27.80159505208333
 21
-83.46289740668402
 72
     1
 10
27.80159505208333
 20
-83.46289740668402
 11
27.77524142795139
 21
-83.48774549696181
 72
     1
 10
27.77524142795139
 20
-83.48774549696181
 11
27.74774848090278
 21
-83.61198594835069
 72
     1
 10
27.74774848090278
 20
-83.61198594835069
 11
27.7633056640625
 21
-83.62854682074652
 72
     1
 10
27.7633056640625
 20
-83.62854682074652
 11
28.71500651041666
 21
-83.69481065538194
 72
     1
 10
28.71500651041666
 20
-83.69481065538194
 11
28.88917371961805
 21
-83.88033718532985
 72
     1
 10
28.88917371961805
 20
-83.88033718532985
 11
28.82267252604166
 21
-84.15532090928819
 72
     1
 10
28.82267252604166
 20
-84.15532090928819
 11
28.59944661458333
 21
-84.36569552951389
 72
     1
 10
28.59944661458333
 20
-84.36569552951389
 11
27.3670654296875
 21
-84.36569552951389
 72
     1
 10
27.3670654296875
 20
-84.36569552951389
 11
27.18511284722222
 21
-84.17188178168402
 97
        0
 75
     2
 76
     1
 98
        0
  0
POLYLINE
  5
A7
330
60
100
AcDbEntity
  8
Layer 1
370
     0
100
AcDb2dPolyline
 66
     1
 10
0.0
 20
0.0
 30
0.0
  0
VERTEX
  5
A8
330
A7
100
AcDbEntity
  8
Layer 1
370
     0
100
AcDbVertex
100
AcDb2dVertex
 10
30.09922960069444
 20
-83.48774549696181
 30
0.0
  0
VERTEX
  5
A9
330
A7
100
AcDbEntity
  8
Layer 1
370
     0
100
AcDbVertex
100
AcDb2dVertex
 10
29.88982476128472
 20
-84.36569552951389
 30
0.0
  0
VERTEX
  5
AA
330
A7
100
AcDbEntity
  8
Layer 1
370
     0
100
AcDbVertex
100
AcDb2dVertex
 10
29.46908908420139
 20
-84.36569552951389
 30
0.0
  0
VERTEX
  5
AB
330
A7
100
AcDbEntity
  8
Layer 1
370
     0
100
AcDbVertex
100
AcDb2dVertex
 10
29.67849392361111
 20
-83.48774549696181
 30
0.0
  0
VERTEX
  5
AC
330
A7
100
AcDbEntity
  8
Layer 1
370
     0
100
AcDbVertex
100
AcDb2dVertex
 10
29.10702853732639
 20
-83.48774549696181
 30
0.0
  0
VERTEX
  5
AD
330
A7
100
AcDbEntity
  8
Layer 1
370
     0
100
AcDbVertex
100
AcDb2dVertex
 10
29.16960991753472
 20
-83.22271050347221
 30
0.0
  0
VERTEX
  5
AE
330
A7
100
AcDbEntity
  8
Layer 1
370
     0
100
AcDbVertex
100
AcDb2dVertex
 10
30.7332763671875
 20
-83.22271050347221
 30
0.0
  0
VERTEX
  5
AF
330
A7
100
AcDbEntity
  8
Layer 1
370
     0
100
AcDbVertex
100
AcDb2dVertex
 10
30.67069498697916
 20
-83.48774549696181
 30
0.0
  0
VERTEX
  5
B0
330
A7
100
AcDbEntity
  8
Layer 1
370
     0
100
AcDbVertex
100
AcDb2dVertex
 10
30.09922960069444
 20
-83.48774549696181
 30
0.0
  0
SEQEND
  5
B1
330
A7
100
AcDbEntity
  8
Layer 1
370
     0
  0
HATCH
  5
B2
330
60
100
AcDbEntity
  8
Layer 1
 62
   179
420
  2301728
100
AcDbHatch
 10
0.0
 20
0.0
 30
0.0
210
0.0
220
0.0
230
1.0
  2
SOLID
 70
     1
 71
     0
 91
        1
 92
        1
 93
        8
 72
     1
 10
30.09922960069444
 20
-83.48774549696181
 11
29.88982476128472
 21
-84.36569552951389
 72
     1
 10
29.88982476128472
 20
-84.36569552951389
 11
29.46908908420139
 21
-84.36569552951389
 72
     1
 10
29.46908908420139
 20
-84.36569552951389
 11
29.67849392361111
 21
-83.48774549696181
 72
     1
 10
29.67849392361111
 20
-83.48774549696181
 11
29.10702853732639
 21
-83.48774549696181
 72
     1
 10
29.10702853732639
 20
-83.48774549696181
 11
29.16960991753472
 21
-83.22271050347221
 72
     1
 10
29.16960991753472
 20
-83.22271050347221
 11
30.7332763671875
 21
-83.22271050347221
 72
     1
 10
30.7332763671875
 20
-83.22271050347221
 11
30.67069498697916
 21
-83.48774549696181
 72
     1
 10
30.67069498697916
 20
-83.48774549696181
 11
30.09922960069444
 21
-83.48774549696181
 97
        0
 75
     2
 76
     1
 98
        0
  0
POLYLINE
  5
B3
330
60
100
AcDbEntity
  8
Layer 1
370
     0
100
AcDb2dPolyline
 66
     1
 10
0.0
 20
0.0
 30
0.0
  0
VERTEX
  5
B4
330
B3
100
AcDbEntity
  8
Layer 1
370
     0
100
AcDbVertex
100
AcDb2dVertex
 10
30.89229329427083
 20
-83.22271050347221
 30
0.0
  0
VERTEX
  5
B5
330
B3
100
AcDbEntity
  8
Layer 1
370
     0
100
AcDbVertex
100
AcDb2dVertex
 10
32.00210232204861
 20
-83.22271050347221
 30
0.0
  0
VERTEX
  5
B6
330
B3
100
AcDbEntity
  8
Layer 1
370
     0
100
AcDbVertex
100
AcDb2dVertex
 10
31.94216579861111
 20
-83.47118462456596
 30
0.0
  0
VERTEX
  5
B7
330
B3
100
AcDbEntity
  8
Layer 1
370
     0
100
AcDbVertex
100
AcDb2dVertex
 10
31.59929741753472
 20
-83.47118462456596
 30
0.0
  0
VERTEX
  5
B8
330
B3
100
AcDbEntity
  8
Layer 1
370
     0
100
AcDbVertex
100
AcDb2dVertex
 10
31.4471435546875
 20
-84.1172146267361
 30
0.0
  0
VERTEX
  5
B9
330
B3
100
AcDbEntity
  8
Layer 1
370
     0
100
AcDbVertex
100
AcDb2dVertex
 10
31.79002549913194
 20
-84.1172146267361
 30
0.0
  0
VERTEX
  5
BA
330
B3
100
AcDbEntity
  8
Layer 1
370
     0
100
AcDbVertex
100
AcDb2dVertex
 10
31.73177083333333
 20
-84.36569552951389
 30
0.0
  0
VERTEX
  5
BB
330
B3
100
AcDbEntity
  8
Layer 1
370
     0
100
AcDbVertex
100
AcDb2dVertex
 10
30.62196180555555
 20
-84.36569552951389
 30
0.0
  0
VERTEX
  5
BC
330
B3
100
AcDbEntity
  8
Layer 1
370
     0
100
AcDbVertex
100
AcDb2dVertex
 10
30.68021647135416
 20
-84.1172146267361
 30
0.0
  0
VERTEX
  5
BD
330
B3
100
AcDbEntity
  8
Layer 1
370
     0
100
AcDbVertex
100
AcDb2dVertex
 10
31.02640787760416
 20
-84.1172146267361
 30
0.0
  0
VERTEX
  5
BE
330
B3
100
AcDbEntity
  8
Layer 1
370
     0
100
AcDbVertex
100
AcDb2dVertex
 10
31.17856174045139
 20
-83.47118462456596
 30
0.0
  0
VERTEX
  5
BF
330
B3
100
AcDbEntity
  8
Layer 1
370
     0
100
AcDbVertex
100
AcDb2dVertex
 10
30.83237033420139
 20
-83.47118462456596
 30
0.0
  0
VERTEX
  5
C0
330
B3
100
AcDbEntity
  8
Layer 1
370
     0
100
AcDbVertex
100
AcDb2dVertex
 10
30.89229329427083
 20
-83.22271050347221
 30
0.0
  0
SEQEND
  5
C1
330
B3
100
AcDbEntity
  8
Layer 1
370
     0
  0
HATCH
  5
C2
330
60
100
AcDbEntity
  8
Layer 1
 62
   179
420
  2301728
100
AcDbHatch
 10
0.0
 20
0.0
 30
0.0
210
0.0
220
0.0
230
1.0
  2
SOLID
 70
     1
 71
     0
 91
        1
 92
        1
 93
       12
 72
     1
 10
30.89229329427083
 20
-83.22271050347221
 11
32.00210232204861
 21
-83.22271050347221
 72
     1
 10
32.00210232204861
 20
-83.22271050347221
 11
31.94216579861111
 21
-83.47118462456596
 72
     1
 10
31.94216579861111
 20
-83.47118462456596
 11
31.59929741753472
 21
-83.47118462456596
 72
     1
 10
31.59929741753472
 20
-83.47118462456596
 11
31.4471435546875
 21
-84.1172146267361
 72
     1
 10
31.4471435546875
 20
-84.1172146267361
 11
31.79002549913194
 21
-84.1172146267361
 72
     1
 10
31.79002549913194
 20
-84.1172146267361
 11
31.73177083333333
 21
-84.36569552951389
 72
     1
 10
31.73177083333333
 20
-84.36569552951389
 11
30.62196180555555
 21
-84.36569552951389
 72
     1
 10
30.62196180555555
 20
-84.36569552951389
 11
30.68021647135416
 21
-84.1172146267361
 72
     1
 10
30.68021647135416
 20
-84.1172146267361
 11
31.02640787760416
 21
-84.1172146267361
 72
     1
 10
31.02640787760416
 20
-84.1172146267361
 11
31.17856174045139
 21
-83.47118462456596
 72
     1
 10
31.17856174045139
 20
-83.47118462456596
 11
30.83237033420139
 21
-83.47118462456596
 72
     1
 10
30.83237033420139
 20
-83.47118462456596
 11
30.89229329427083
 21
-83.22271050347221
 97
        0
 75
     2
 76
     1
 98
        0
  0
POLYLINE
  5
C3
330
60
100
AcDbEntity
  8
Layer 1
370
     0
100
AcDb2dPolyline
 66
     1
 10
0.0
 20
0.0
 30
0.0
  0
VERTEX
  5
C4
330
C3
100
AcDbEntity
  8
Layer 1
370
     0
100
AcDbVertex
100
AcDb2dVertex
 10
32.2952880859375
 20
-83.22271050347221
 30
0.0
  0
VERTEX
  5
C5
330
C3
100
AcDbEntity
  8
Layer 1
370
     0
100
AcDbVertex
100
AcDb2dVertex
 10
32.9031982421875
 20
-83.22271050347221
 30
0.0
  0
VERTEX
  5
C6
330
C3
100
AcDbEntity
  8
Layer 1
370
     0
100
AcDbVertex
100
AcDb2dVertex
 10
33.27114529079861
 20
-84.08574761284721
 30
0.0
  0
VERTEX
  5
C7
330
C3
100
AcDbEntity
  8
Layer 1
370
     0
100
AcDbVertex
100
AcDb2dVertex
 10
33.47633192274306
 20
-83.22271050347221
 30
0.0
  0
VERTEX
  5
C8
330
C3
100
AcDbEntity
  8
Layer 1
370
     0
100
AcDbVertex
100
AcDb2dVertex
 10
33.85233561197916
 20
-83.22271050347221
 30
0.0
  0
VERTEX
  5
C9
330
C3
100
AcDbEntity
  8
Layer 1
370
     0
100
AcDbVertex
100
AcDb2dVertex
 10
33.58034939236111
 20
-84.36569552951389
 30
0.0
  0
VERTEX
  5
CA
330
C3
100
AcDbEntity
  8
Layer 1
370
     0
100
AcDbVertex
100
AcDb2dVertex
 10
32.97078450520833
 20
-84.36569552951389
 30
0.0
  0
VERTEX
  5
CB
330
C3
100
AcDbEntity
  8
Layer 1
370
     0
100
AcDbVertex
100
AcDb2dVertex
 10
32.60468207465278
 20
-83.49934217664931
 30
0.0
  0
VERTEX
  5
CC
330
C3
100
AcDbEntity
  8
Layer 1
370
     0
100
AcDbVertex
100
AcDb2dVertex
 10
32.39931911892361
 20
-84.36569552951389
 30
0.0
  0
VERTEX
  5
CD
330
C3
100
AcDbEntity
  8
Layer 1
370
     0
100
AcDbVertex
100
AcDb2dVertex
 10
32.02330186631944
 20
-84.36569552951389
 30
0.0
  0
VERTEX
  5
CE
330
C3
100
AcDbEntity
  8
Layer 1
370
     0
100
AcDbVertex
100
AcDb2dVertex
 10
32.2952880859375
 20
-83.22271050347221
 30
0.0
  0
SEQEND
  5
CF
330
C3
100
AcDbEntity
  8
Layer 1
370
     0
  0
HATCH
  5
D0
330
60
100
AcDbEntity
  8
Layer 1
 62
   179
420
  2301728
100
AcDbHatch
 10
0.0
 20
0.0
 30
0.0
210
0.0
220
0.0
230
1.0
  2
SOLID
 70
     1
 71
     0
 91
        1
 92
        1
 93
       10
 72
     1
 10
32.2952880859375
 20
-83.22271050347221
 11
32.9031982421875
 21
-83.22271050347221
 72
     1
 10
32.9031982421875
 20
-83.22271050347221
 11
33.27114529079861
 21
-84.08574761284721
 72
     1
 10
33.27114529079861
 20
-84.08574761284721
 11
33.47633192274306
 21
-83.22271050347221
 72
     1
 10
33.47633192274306
 20
-83.22271050347221
 11
33.85233561197916
 21
-83.22271050347221
 72
     1
 10
33.85233561197916
 20
-83.22271050347221
 11
33.58034939236111
 21
-84.36569552951389
 72
     1
 10
33.58034939236111
 20
-84.36569552951389
 11
32.97078450520833
 21
-84.36569552951389
 72
     1
 10
32.97078450520833
 20
-84.36569552951389
 11
32.60468207465278
 21
-83.49934217664931
 72
     1
 10
32.60468207465278
 20
-83.49934217664931
 11
32.39931911892361
 21
-84.36569552951389
 72
     1
 10
32.39931911892361
 20
-84.36569552951389
 11
32.02330186631944
 21
-84.36569552951389
 72
     1
 10
32.02330186631944
 20
-84.36569552951389
 11
32.2952880859375
 21
-83.22271050347221
 97
        0
 75
     2
 76
     1
 98
        0
  0
POLYLINE
  5
D1
330
60
100
AcDbEntity
  8
Layer 1
370
     0
100
AcDb2dPolyline
 66
     1
 10
0.0
 20
0.0
 30
0.0
  0
VERTEX
  5
D2
330
D1
100
AcDbEntity
  8
Layer 1
370
     0
100
AcDbVertex
100
AcDb2dVertex
 10
33.93710666232639
 20
-84.13875325520833
 30
0.0
  0
VERTEX
  5
D3
330
D1
100
AcDbEntity
  8
Layer 1
370
     0
100
AcDbVertex
100
AcDb2dVertex
 10
34.10017903645833
 20
-83.44965277777777
 30
0.0
  0
VERTEX
  5
D4
330
D1
100
AcDbEntity
  8
Layer 1
370
     0
100
AcDbVertex
100
AcDb2dVertex
 10
34.34098307291666
 20
-83.22271050347221
 30
0.0
  0
VERTEX
  5
D5
330
D1
100
AcDbEntity
  8
Layer 1
370
     0
100
AcDbVertex
100
AcDb2dVertex
 10
35.56342230902778
 20
-83.22271050347221
 30
0.0
  0
VERTEX
  5
D6
330
D1
100
AcDbEntity
  8
Layer 1
370
     0
100
AcDbVertex
100
AcDb2dVertex
 10
35.77647569444444
 20
-83.44965277777777
 30
0.0
  0
VERTEX
  5
D7
330
D1
100
AcDbEntity
  8
Layer 1
370
     0
100
AcDbVertex
100
AcDb2dVertex
 10
35.72481282552083
 20
-83.67162407769096
 30
0.0
  0
VERTEX
  5
D8
330
D1
100
AcDbEntity
  8
Layer 1
370
     0
100
AcDbVertex
100
AcDb2dVertex
 10
35.30242241753472
 20
-83.67162407769096
 30
0.0
  0
VERTEX
  5
D9
330
D1
100
AcDbEntity
  8
Layer 1
370
     0
100
AcDbVertex
100
AcDb2dVertex
 10
35.32671440972222
 20
-83.57223171657985
 30
0.0
  0
VERTEX
  5
DA
330
D1
100
AcDbEntity
  8
Layer 1
370
     0
100
AcDbVertex
100
AcDb2dVertex
 10
35.2396240234375
 20
-83.47946506076389
 30
0.0
  0
VERTEX
  5
DB
330
D1
100
AcDbEntity
  8
Layer 1
370
     0
100
AcDbVertex
100
AcDb2dVertex
 10
34.59030490451389
 20
-83.47946506076389
 30
0.0
  0
VERTEX
  5
DC
330
D1
100
AcDbEntity
  8
Layer 1
370
     0
100
AcDbVertex
100
AcDb2dVertex
 10
34.49187554253472
 20
-83.57223171657985
 30
0.0
  0
VERTEX
  5
DD
330
D1
100
AcDbEntity
  8
Layer 1
370
     0
100
AcDbVertex
100
AcDb2dVertex
 10
34.38686794704861
 20
-84.01616753472221
 30
0.0
  0
VERTEX
  5
DE
330
D1
100
AcDbEntity
  8
Layer 1
370
     0
100
AcDbVertex
100
AcDb2dVertex
 10
34.47394476996528
 20
-84.10894097222221
 30
0.0
  0
VERTEX
  5
DF
330
D1
100
AcDbEntity
  8
Layer 1
370
     0
100
AcDbVertex
100
AcDb2dVertex
 10
35.12326388888889
 20
-84.10894097222221
 30
0.0
  0
VERTEX
  5
E0
330
D1
100
AcDbEntity
  8
Layer 1
370
     0
100
AcDbVertex
100
AcDb2dVertex
 10
35.22170681423611
 20
-84.01616753472221
 30
0.0
  0
VERTEX
  5
E1
330
D1
100
AcDbEntity
  8
Layer 1
370
     0
100
AcDbVertex
100
AcDb2dVertex
 10
35.24650065104166
 20
-83.90850151909721
 30
0.0
  0
VERTEX
  5
E2
330
D1
100
AcDbEntity
  8
Layer 1
370
     0
100
AcDbVertex
100
AcDb2dVertex
 10
35.66889105902778
 20
-83.90850151909721
 30
0.0
  0
VERTEX
  5
E3
330
D1
100
AcDbEntity
  8
Layer 1
370
     0
100
AcDbVertex
100
AcDb2dVertex
 10
35.6134033203125
 20
-84.13875325520833
 30
0.0
  0
VERTEX
  5
E4
330
D1
100
AcDbEntity
  8
Layer 1
370
     0
100
AcDbVertex
100
AcDb2dVertex
 10
35.37259928385416
 20
-84.36569552951389
 30
0.0
  0
VERTEX
  5
E5
330
D1
100
AcDbEntity
  8
Layer 1
370
     0
100
AcDbVertex
100
AcDb2dVertex
 10
34.15016004774306
 20
-84.36569552951389
 30
0.0
  0
VERTEX
  5
E6
330
D1
100
AcDbEntity
  8
Layer 1
370
     0
100
AcDbVertex
100
AcDb2dVertex
 10
33.93710666232639
 20
-84.13875325520833
 30
0.0
  0
SEQEND
  5
E7
330
D1
100
AcDbEntity
  8
Layer 1
370
     0
  0
HATCH
  5
E8
330
60
100
AcDbEntity
  8
Layer 1
 62
   179
420
  2301728
100
AcDbHatch
 10
0.0
 20
0.0
 30
0.0
210
0.0
220
0.0
230
1.0
  2
SOLID
 70
     1
 71
     0
 91
        1
 92
        1
 93
       20
 72
     1
 10
33.93710666232639
 20
-84.13875325520833
 11
34.10017903645833
 21
-83.44965277777777
 72
     1
 10
34.10017903645833
 20
-83.44965277777777
 11
34.34098307291666
 21
-83.22271050347221
 72
     1
 10
34.34098307291666
 20
-83.22271050347221
 11
35.56342230902778
 21
-83.22271050347221
 72
     1
 10
35.56342230902778
 20
-83.22271050347221
 11
35.77647569444444
 21
-83.44965277777777
 72
     1
 10
35.77647569444444
 20
-83.44965277777777
 11
35.72481282552083
 21
-83.67162407769096
 72
     1
 10
35.72481282552083
 20
-83.67162407769096
 11
35.30242241753472
 21
-83.67162407769096
 72
     1
 10
35.30242241753472
 20
-83.67162407769096
 11
35.32671440972222
 21
-83.57223171657985
 72
     1
 10
35.32671440972222
 20
-83.57223171657985
 11
35.2396240234375
 21
-83.47946506076389
 72
     1
 10
35.2396240234375
 20
-83.47946506076389
 11
34.59030490451389
 21
-83.47946506076389
 72
     1
 10
34.59030490451389
 20
-83.47946506076389
 11
34.49187554253472
 21
-83.57223171657985
 72
     1
 10
34.49187554253472
 20
-83.57223171657985
 11
34.38686794704861
 21
-84.01616753472221
 72
     1
 10
34.38686794704861
 20
-84.01616753472221
 11
34.47394476996528
 21
-84.10894097222221
 72
     1
 10
34.47394476996528
 20
-84.10894097222221
 11
35.12326388888889
 21
-84.10894097222221
 72
     1
 10
35.12326388888889
 20
-84.10894097222221
 11
35.22170681423611
 21
-84.01616753472221
 72
     1
 10
35.22170681423611
 20
-84.01616753472221
 11
35.24650065104166
 21
-83.90850151909721
 72
     1
 10
35.24650065104166
 20
-83.90850151909721
 11
35.66889105902778
 21
-83.90850151909721
 72
     1
 10
35.66889105902778
 20
-83.90850151909721
 11
35.6134033203125
 21
-84.13875325520833
 72
     1
 10
35.6134033203125
 20
-84.13875325520833
 11
35.37259928385416
 21
-84.36569552951389
 72
     1
 10
35.37259928385416
 20
-84.36569552951389
 11
34.15016004774306
 21
-84.36569552951389
 72
     1
 10
34.15016004774306
 20
-84.36569552951389
 11
33.93710666232639
 21
-84.13875325520833
 97
        0
 75
     2
 76
     1
 98
        0
  0
POLYLINE
  5
E9
330
60
100
AcDbEntity
  8
Layer 1
370
     0
100
AcDb2dPolyline
 66
     1
 10
0.0
 20
0.0
 30
0.0
  0
VERTEX
  5
EA
330
E9
100
AcDbEntity
  8
Layer 1
370
     0
100
AcDbVertex
100
AcDb2dVertex
 10
36.90218098958333
 20
-83.48774549696181
 30
0.0
  0
VERTEX
  5
EB
330
E9
100
AcDbEntity
  8
Layer 1
370
     0
100
AcDbVertex
100
AcDb2dVertex
 10
36.69277615017361
 20
-84.36569552951389
 30
0.0
  0
VERTEX
  5
EC
330
E9
100
AcDbEntity
  8
Layer 1
370
     0
100
AcDbVertex
100
AcDb2dVertex
 10
36.27204047309028
 20
-84.36569552951389
 30
0.0
  0
VERTEX
  5
ED
330
E9
100
AcDbEntity
  8
Layer 1
370
     0
100
AcDbVertex
100
AcDb2dVertex
 10
36.4814453125
 20
-83.48774549696181
 30
0.0
  0
VERTEX
  5
EE
330
E9
100
AcDbEntity
  8
Layer 1
370
     0
100
AcDbVertex
100
AcDb2dVertex
 10
35.90997992621528
 20
-83.48774549696181
 30
0.0
  0
VERTEX
  5
EF
330
E9
100
AcDbEntity
  8
Layer 1
370
     0
100
AcDbVertex
100
AcDb2dVertex
 10
35.97256130642361
 20
-83.22271050347221
 30
0.0
  0
VERTEX
  5
F0
330
E9
100
AcDbEntity
  8
Layer 1
370
     0
100
AcDbVertex
100
AcDb2dVertex
 10
37.53622775607639
 20
-83.22271050347221
 30
0.0
  0
VERTEX
  5
F1
330
E9
100
AcDbEntity
  8
Layer 1
370
     0
100
AcDbVertex
100
AcDb2dVertex
 10
37.47364637586805
 20
-83.48774549696181
 30
0.0
  0
VERTEX
  5
F2
330
E9
100
AcDbEntity
  8
Layer 1
370
     0
100
AcDbVertex
100
AcDb2dVertex
 10
36.90218098958333
 20
-83.48774549696181
 30
0.0
  0
SEQEND
  5
F3
330
E9
100
AcDbEntity
  8
Layer 1
370
     0
  0
HATCH
  5
F4
330
60
100
AcDbEntity
  8
Layer 1
 62
   179
420
  2301728
100
AcDbHatch
 10
0.0
 20
0.0
 30
0.0
210
0.0
220
0.0
230
1.0
  2
SOLID
 70
     1
 71
     0
 91
        1
 92
        1
 93
        8
 72
     1
 10
36.90218098958333
 20
-83.48774549696181
 11
36.69277615017361
 21
-84.36569552951389
 72
     1
 10
36.69277615017361
 20
-84.36569552951389
 11
36.27204047309028
 21
-84.36569552951389
 72
     1
 10
36.27204047309028
 20
-84.36569552951389
 11
36.4814453125
 21
-83.48774549696181
 72
     1
 10
36.4814453125
 20
-83.48774549696181
 11
35.90997992621528
 21
-83.48774549696181
 72
     1
 10
35.90997992621528
 20
-83.48774549696181
 11
35.97256130642361
 21
-83.22271050347221
 72
     1
 10
35.97256130642361
 20
-83.22271050347221
 11
37.53622775607639
 21
-83.22271050347221
 72
     1
 10
37.53622775607639
 20
-83.22271050347221
 11
37.47364637586805
 21
-83.48774549696181
 72
     1
 10
37.47364637586805
 20
-83.48774549696181
 11
36.90218098958333
 21
-83.48774549696181
 97
        0
 75
     2
 76
     1
 98
        0
  0
POLYLINE
  5
F5
330
60
100
AcDbEntity
  8
Layer 1
370
     0
100
AcDb2dPolyline
 66
     1
 10
0.0
 20
0.0
 30
0.0
  0
VERTEX
  5
F6
330
F5
100
AcDbEntity
  8
Layer 1
370
     0
100
AcDbVertex
100
AcDb2dVertex
 10
37.69524468315972
 20
-83.22271050347221
 30
0.0
  0
VERTEX
  5
F7
330
F5
100
AcDbEntity
  8
Layer 1
370
     0
100
AcDbVertex
100
AcDb2dVertex
 10
38.8050537109375
 20
-83.22271050347221
 30
0.0
  0
VERTEX
  5
F8
330
F5
100
AcDbEntity
  8
Layer 1
370
     0
100
AcDbVertex
100
AcDb2dVertex
 10
38.7451171875
 20
-83.47118462456596
 30
0.0
  0
VERTEX
  5
F9
330
F5
100
AcDbEntity
  8
Layer 1
370
     0
100
AcDbVertex
100
AcDb2dVertex
 10
38.40224880642361
 20
-83.47118462456596
 30
0.0
  0
VERTEX
  5
FA
330
F5
100
AcDbEntity
  8
Layer 1
370
     0
100
AcDbVertex
100
AcDb2dVertex
 10
38.25009494357639
 20
-84.1172146267361
 30
0.0
  0
VERTEX
  5
FB
330
F5
100
AcDbEntity
  8
Layer 1
370
     0
100
AcDbVertex
100
AcDb2dVertex
 10
38.59297688802083
 20
-84.1172146267361
 30
0.0
  0
VERTEX
  5
FC
330
F5
100
AcDbEntity
  8
Layer 1
370
     0
100
AcDbVertex
100
AcDb2dVertex
 10
38.53472222222222
 20
-84.36569552951389
 30
0.0
  0
VERTEX
  5
FD
330
F5
100
AcDbEntity
  8
Layer 1
370
     0
100
AcDbVertex
100
AcDb2dVertex
 10
37.42491319444444
 20
-84.36569552951389
 30
0.0
  0
VERTEX
  5
FE
330
F5
100
AcDbEntity
  8
Layer 1
370
     0
100
AcDbVertex
100
AcDb2dVertex
 10
37.48316786024305
 20
-84.1172146267361
 30
0.0
  0
VERTEX
  5
FF
330
F5
100
AcDbEntity
  8
Layer 1
370
     0
100
AcDbVertex
100
AcDb2dVertex
 10
37.82935926649305
 20
-84.1172146267361
 30
0.0
  0
VERTEX
  5
100
330
F5
100
AcDbEntity
  8
Layer 1
370
     0
100
AcDbVertex
100
AcDb2dVertex
 10
37.98151312934028
 20
-83.47118462456596
 30
0.0
  0
VERTEX
  5
101
330
F5
100
AcDbEntity
  8
Layer 1
370
     0
100
AcDbVertex
100
AcDb2dVertex
 10
37.63532172309028
 20
-83.47118462456596
 30
0.0
  0
VERTEX
  5
102
330
F5
100
AcDbEntity
  8
Layer 1
370
     0
100
AcDbVertex
100
AcDb2dVertex
 10
37.69524468315972
 20
-83.22271050347221
 30
0.0
  0
SEQEND
  5
103
330
F5
100
AcDbEntity
  8
Layer 1
370
     0
  0
HATCH
  5
104
330
60
100
AcDbEntity
  8
Layer 1
 62
   179
420
  2301728
100
AcDbHatch
 10
0.0
 20
0.0
 30
0.0
210
0.0
220
0.0
230
1.0
  2
SOLID
 70
     1
 71
     0
 91
        1
 92
        1
 93
       12
 72
     1
 10
37.69524468315972
 20
-83.22271050347221
 11
38.8050537109375
 21
-83.22271050347221
 72
     1
 10
38.8050537109375
 20
-83.22271050347221
 11
38.7451171875
 21
-83.47118462456596
 72
     1
 10
38.7451171875
 20
-83.47118462456596
 11
38.40224880642361
 21
-83.47118462456596
 72
     1
 10
38.40224880642361
 20
-83.47118462456596
 11
38.25009494357639
 21
-84.1172146267361
 72
     1
 10
38.25009494357639
 20
-84.1172146267361
 11
38.59297688802083
 21
-84.1172146267361
 72
     1
 10
38.59297688802083
 20
-84.1172146267361
 11
38.53472222222222
 21
-84.36569552951389
 72
     1
 10
38.53472222222222
 20
-84.36569552951389
 11
37.42491319444444
 21
-84.36569552951389
 72
     1
 10
37.42491319444444
 20
-84.36569552951389
 11
37.48316786024305
 21
-84.1172146267361
 72
     1
 10
37.48316786024305
 20
-84.1172146267361
 11
37.82935926649305
 21
-84.1172146267361
 72
     1
 10
37.82935926649305
 20
-84.1172146267361
 11
37.98151312934028
 21
-83.47118462456596
 72
     1
 10
37.98151312934028
 20
-83.47118462456596
 11
37.63532172309028
 21
-83.47118462456596
 72
     1
 10
37.63532172309028
 20
-83.47118462456596
 11
37.69524468315972
 21
-83.22271050347221
 97
        0
 75
     2
 76
     1
 98
        0
  0
POLYLINE
  5
105
330
60
100
AcDbEntity
  8
Layer 1
370
     0
100
AcDb2dPolyline
 66
     1
 10
0.0
 20
0.0
 30
0.0
  0
VERTEX
  5
106
330
105
100
AcDbEntity
  8
Layer 1
370
     0
100
AcDbVertex
100
AcDb2dVertex
 10
38.84014214409722
 20
-84.13875325520833
 30
0.0
  0
VERTEX
  5
107
330
105
100
AcDbEntity
  8
Layer 1
370
     0
100
AcDbVertex
100
AcDb2dVertex
 10
39.00321451822916
 20
-83.44965277777777
 30
0.0
  0
VERTEX
  5
108
330
105
100
AcDbEntity
  8
Layer 1
370
     0
100
AcDbVertex
100
AcDb2dVertex
 10
39.2440185546875
 20
-83.22271050347221
 30
0.0
  0
VERTEX
  5
109
330
105
100
AcDbEntity
  8
Layer 1
370
     0
100
AcDbVertex
100
AcDb2dVertex
 10
40.49959309895833
 20
-83.22271050347221
 30
0.0
  0
VERTEX
  5
10A
330
105
100
AcDbEntity
  8
Layer 1
370
     0
100
AcDbVertex
100
AcDb2dVertex
 10
40.712646484375
 20
-83.44965277777777
 30
0.0
  0
VERTEX
  5
10B
330
105
100
AcDbEntity
  8
Layer 1
370
     0
100
AcDbVertex
100
AcDb2dVertex
 10
40.54957411024305
 20
-84.13875325520833
 30
0.0
  0
VERTEX
  5
10C
330
105
100
AcDbEntity
  8
Layer 1
370
     0
100
AcDbVertex
100
AcDb2dVertex
 10
40.30877007378472
 20
-84.36569552951389
 30
0.0
  0
VERTEX
  5
10D
330
105
100
AcDbEntity
  8
Layer 1
370
     0
100
AcDbVertex
100
AcDb2dVertex
 10
39.05319552951389
 20
-84.36569552951389
 30
0.0
  0
VERTEX
  5
10E
330
105
100
AcDbEntity
  8
Layer 1
370
     0
100
AcDbVertex
100
AcDb2dVertex
 10
38.84014214409722
 20
-84.13875325520833
 30
0.0
  0
SEQEND
  5
10F
330
105
100
AcDbEntity
  8
Layer 1
370
     0
  0
POLYLINE
  5
110
330
60
100
AcDbEntity
  8
Layer 1
370
     0
100
AcDb2dPolyline
 66
     1
 10
0.0
 20
0.0
 30
0.0
  0
VERTEX
  5
111
330
110
100
AcDbEntity
  8
Layer 1
370
     0
100
AcDbVertex
100
AcDb2dVertex
 10
40.05943467881944
 20
-84.10894097222221
 30
0.0
  0
VERTEX
  5
112
330
110
100
AcDbEntity
  8
Layer 1
370
     0
100
AcDbVertex
100
AcDb2dVertex
 10
40.15787760416666
 20
-84.01616753472221
 30
0.0
  0
VERTEX
  5
113
330
110
100
AcDbEntity
  8
Layer 1
370
     0
100
AcDbVertex
100
AcDb2dVertex
 10
40.26287163628472
 20
-83.57223171657985
 30
0.0
  0
VERTEX
  5
114
330
110
100
AcDbEntity
  8
Layer 1
370
     0
100
AcDbVertex
100
AcDb2dVertex
 10
40.17579481336805
 20
-83.47946506076389
 30
0.0
  0
VERTEX
  5
115
330
110
100
AcDbEntity
  8
Layer 1
370
     0
100
AcDbVertex
100
AcDb2dVertex
 10
39.49334038628472
 20
-83.47946506076389
 30
0.0
  0
VERTEX
  5
116
330
110
100
AcDbEntity
  8
Layer 1
370
     0
100
AcDbVertex
100
AcDb2dVertex
 10
39.39491102430555
 20
-83.57223171657985
 30
0.0
  0
VERTEX
  5
117
330
110
100
AcDbEntity
  8
Layer 1
370
     0
100
AcDbVertex
100
AcDb2dVertex
 10
39.28990342881944
 20
-84.01616753472221
 30
0.0
  0
VERTEX
  5
118
330
110
100
AcDbEntity
  8
Layer 1
370
     0
100
AcDbVertex
100
AcDb2dVertex
 10
39.37698025173611
 20
-84.10894097222221
 30
0.0
  0
VERTEX
  5
119
330
110
100
AcDbEntity
  8
Layer 1
370
     0
100
AcDbVertex
100
AcDb2dVertex
 10
40.05943467881944
 20
-84.10894097222221
 30
0.0
  0
SEQEND
  5
11A
330
110
100
AcDbEntity
  8
Layer 1
370
     0
  0
HATCH
  5
11B
330
60
100
AcDbEntity
  8
Layer 1
 62
   179
420
  2301728
100
AcDbHatch
 10
0.0
 20
0.0
 30
0.0
210
0.0
220
0.0
230
1.0
  2
SOLID
 70
     1
 71
     0
 91
        2
 92
        1
 93
        8
 72
     1
 10
38.84014214409722
 20
-84.13875325520833
 11
39.00321451822916
 21
-83.44965277777777
 72
     1
 10
39.00321451822916
 20
-83.44965277777777
 11
39.2440185546875
 21
-83.22271050347221
 72
     1
 10
39.2440185546875
 20
-83.22271050347221
 11
40.49959309895833
 21
-83.22271050347221
 72
     1
 10
40.49959309895833
 20
-83.22271050347221
 11
40.712646484375
 21
-83.44965277777777
 72
     1
 10
40.712646484375
 20
-83.44965277777777
 11
40.54957411024305
 21
-84.13875325520833
 72
     1
 10
40.54957411024305
 20
-84.13875325520833
 11
40.30877007378472
 21
-84.36569552951389
 72
     1
 10
40.30877007378472
 20
-84.36569552951389
 11
39.05319552951389
 21
-84.36569552951389
 72
     1
 10
39.05319552951389
 20
-84.36569552951389
 11
38.84014214409722
 21
-84.13875325520833
 97
        0
 92
        1
 93
        8
 72
     1
 10
40.05943467881944
 20
-84.10894097222221
 11
40.15787760416666
 21
-84.01616753472221
 72
     1
 10
40.15787760416666
 20
-84.01616753472221
 11
40.26287163628472
 21
-83.57223171657985
 72
     1
 10
40.26287163628472
 20
-83.57223171657985
 11
40.17579481336805
 21
-83.47946506076389
 72
     1
 10
40.17579481336805
 20
-83.47946506076389
 11
39.49334038628472
 21
-83.47946506076389
 72
     1
 10
39.49334038628472
 20
-83.47946506076389
 11
39.39491102430555
 21
-83.57223171657985
 72
     1
 10
39.39491102430555
 20
-83.57223171657985
 11
39.28990342881944
 21
-84.01616753472221
 72
     1
 10
39.28990342881944
 20
-84.01616753472221
 11
39.37698025173611
 21
-84.10894097222221
 72
     1
 10
39.37698025173611
 20
-84.10894097222221
 11
40.05943467881944
 21
-84.10894097222221
 97
        0
 75
     2
 76
     1
 98
        0
  0
POLYLINE
  5
11C
330
60
100
AcDbEntity
  8
Layer 1
370
     0
100
AcDb2dPolyline
 66
     1
 10
0.0
 20
0.0
 30
0.0
  0
VERTEX
  5
11D
330
11C
100
AcDbEntity
  8
Layer 1
370
     0
100
AcDbVertex
100
AcDb2dVertex
 10
41.06939019097222
 20
-83.22271050347221
 30
0.0
  0
VERTEX
  5
11E
330
11C
100
AcDbEntity
  8
Layer 1
370
     0
100
AcDbVertex
100
AcDb2dVertex
 10
41.67730034722222
 20
-83.22271050347221
 30
0.0
  0
VERTEX
  5
11F
330
11C
100
AcDbEntity
  8
Layer 1
370
     0
100
AcDbVertex
100
AcDb2dVertex
 10
42.04524739583333
 20
-84.08574761284721
 30
0.0
  0
VERTEX
  5
120
330
11C
100
AcDbEntity
  8
Layer 1
370
     0
100
AcDbVertex
100
AcDb2dVertex
 10
42.25042046440972
 20
-83.22271050347221
 30
0.0
  0
VERTEX
  5
121
330
11C
100
AcDbEntity
  8
Layer 1
370
     0
100
AcDbVertex
100
AcDb2dVertex
 10
42.62643771701389
 20
-83.22271050347221
 30
0.0
  0
VERTEX
  5
122
330
11C
100
AcDbEntity
  8
Layer 1
370
     0
100
AcDbVertex
100
AcDb2dVertex
 10
42.35445149739583
 20
-84.36569552951389
 30
0.0
  0
VERTEX
  5
123
330
11C
100
AcDbEntity
  8
Layer 1
370
     0
100
AcDbVertex
100
AcDb2dVertex
 10
41.74488661024305
 20
-84.36569552951389
 30
0.0
  0
VERTEX
  5
124
330
11C
100
AcDbEntity
  8
Layer 1
370
     0
100
AcDbVertex
100
AcDb2dVertex
 10
41.3787841796875
 20
-83.49934217664931
 30
0.0
  0
VERTEX
  5
125
330
11C
100
AcDbEntity
  8
Layer 1
370
     0
100
AcDbVertex
100
AcDb2dVertex
 10
41.17340766059028
 20
-84.36569552951389
 30
0.0
  0
VERTEX
  5
126
330
11C
100
AcDbEntity
  8
Layer 1
370
     0
100
AcDbVertex
100
AcDb2dVertex
 10
40.79740397135416
 20
-84.36569552951389
 30
0.0
  0
VERTEX
  5
127
330
11C
100
AcDbEntity
  8
Layer 1
370
     0
100
AcDbVertex
100
AcDb2dVertex
 10
41.06939019097222
 20
-83.22271050347221
 30
0.0
  0
SEQEND
  5
128
330
11C
100
AcDbEntity
  8
Layer 1
370
     0
  0
HATCH
  5
129
330
60
100
AcDbEntity
  8
Layer 1
 62
   179
420
  2301728
100
AcDbHatch
 10
0.0
 20
0.0
 30
0.0
210
0.0
220
0.0
230
1.0
  2
SOLID
 70
     1
 71
     0
 91
        1
 92
        1
 93
       10
 72
     1
 10
41.06939019097222
 20
-83.22271050347221
 11
41.67730034722222
 21
-83.22271050347221
 72
     1
 10
41.67730034722222
 20
-83.22271050347221
 11
42.04524739583333
 21
-84.08574761284721
 72
     1
 10
42.04524739583333
 20
-84.08574761284721
 11
42.25042046440972
 21
-83.22271050347221
 72
     1
 10
42.25042046440972
 20
-83.22271050347221
 11
42.62643771701389
 21
-83.22271050347221
 72
     1
 10
42.62643771701389
 20
-83.22271050347221
 11
42.35445149739583
 21
-84.36569552951389
 72
     1
 10
42.35445149739583
 20
-84.36569552951389
 11
41.74488661024305
 21
-84.36569552951389
 72
     1
 10
41.74488661024305
 20
-84.36569552951389
 11
41.3787841796875
 21
-83.49934217664931
 72
     1
 10
41.3787841796875
 20
-83.49934217664931
 11
41.17340766059028
 21
-84.36569552951389
 72
     1
 10
41.17340766059028
 20
-84.36569552951389
 11
40.79740397135416
 21
-84.36569552951389
 72
     1
 10
40.79740397135416
 20
-84.36569552951389
 11
41.06939019097222
 21
-83.22271050347221
 97
        0
 75
     2
 76
     1
 98
        0
  0
ENDBLK
  5
63
330
60
100
AcDbEntity
  8
0
100
AcDbBlockEnd
  0
ENDSEC
  0
SECTION
  2
ENTITIES
  0
POLYLINE
  5
41
330
1F
100
AcDbEntity
  8
Layer 2
370
     0
100
AcDb2dPolyline
 66
     1
 10
0.0
 20
0.0
 30
0.0
  0
VERTEX
  5
42
330
41
100
AcDbEntity
  8
Layer 2
370
     0
100
AcDbVertex
100
AcDb2dVertex
 10
26.24163611111112
 20
-93.75093055555554
 30
0.0
  0
VERTEX
  5
43
330
41
100
AcDbEntity
  8
Layer 2
370
     0
100
AcDbVertex
100
AcDb2dVertex
 10
-0.4111958333333329
 20
-93.75093055555554
 30
0.0
  0
VERTEX
  5
44
330
41
100
AcDbEntity
  8
Layer 2
370
     0
100
AcDbVertex
100
AcDb2dVertex
 10
-0.4111958333333329
 20
-78.77564305555555
 30
0.0
  0
VERTEX
  5
45
330
41
100
AcDbEntity
  8
Layer 2
370
     0
100
AcDbVertex
100
AcDb2dVertex
 10
26.24163611111112
 20
-78.77564305555555
 30
0.0
  0
VERTEX
  5
46
330
41
100
AcDbEntity
  8
Layer 2
370
     0
100
AcDbVertex
100
AcDb2dVertex
 10
26.24163611111112
 20
-93.75093055555554
 30
0.0
  0
SEQEND
  5
48
330
41
100
AcDbEntity
  8
Layer 2
370
     0
  0
HATCH
  5
47
330
1F
100
AcDbEntity
  8
Layer 2
 62
   254
420
 15395563
100
AcDbHatch
 10
0.0
 20
0.0
 30
0.0
210
0.0
220
0.0
230
1.0
  2
SOLID
 70
     1
 71
     0
 91
        1
 92
        1
 93
        4
 72
     1
 10
26.24163611111112
 20
-93.75093055555554
 11
-0.4111958333333341
 21
-93.75093055555554
 72
     1
 10
-0.4111958333333329
 20
-93.75093055555554
 11
-0.4111958333333329
 21
-78.77564305555555
 72
     1
 10
-0.4111958333333329
 20
-78.77564305555555
 11
26.24163611111112
 21
-78.77564305555555
 72
     1
 10
26.24163611111112
 20
-78.77564305555555
 11
26.24163611111112
 21
-93.75093055555554
 97
        0
 75
     2
 76
     1
 98
        0
  0
INSERT
  5
4B
330
1F
100
AcDbEntity
  8
Layer 1
100
AcDbBlockReference
  2
block 2
 10
0.0
 20
0.0
 30
0.0
  0
INSERT
  5
61
330
1F
100
AcDbEntity
  8
Layer 1
100
AcDbBlockReference
  2
block 3
 10
0.0
 20
0.0
 30
0.0
  0
ENDSEC
  0
SECTION
  2
OBJECTS
  0
DICTIONARY
  5
C
330
0
100
AcDbDictionary
281
     1
  3
ACAD_GROUP
350
D
  3
ACAD_LAYOUT
350
1A
  3
ACAD_MATERIAL
350
3B
  3
ACAD_MLEADERSTYLE
350
12B
  3
ACAD_MLINESTYLE
350
17
  3
ACAD_PLOTSETTINGS
350
19
  3
ACAD_PLOTSTYLENAME
350
E
  3
ACAD_TABLESTYLE
350
12A
  3
ACAD_VISUALSTYLE
350
2A
  0
SUN
  5
3F
330
29
100
AcDbSun
 90
        1
290
     0
 63
     7
421
 16777215
 40
1.0
291
     1
 91
  2455826
 92
 54000000
292
     0
 70
     2
 71
   256
280
     1
  0
DICTIONARY
  5
D
102
{ACAD_REACTORS
330
C
102
}
330
C
100
AcDbDictionary
281
     1
  0
DICTIONARY
  5
1A
102
{ACAD_REACTORS
330
C
102
}
330
C
100
AcDbDictionary
281
     1
  3
Layout1
350
1E
  3
Layout2
350
26
  3
Model
350
22
  0
DICTIONARY
  5
3B
102
{ACAD_REACTORS
330
C
102
}
330
C
100
AcDbDictionary
281
     1
  3
ByBlock
350
3D
  3
ByLayer
350
3C
  3
Global
350
3E
  0
DICTIONARY
  5
12B
102
{ACAD_REACTORS
330
C
102
}
330
C
100
AcDbDictionary
281
     1
  0
DICTIONARY
  5
17
102
{ACAD_REACTORS
330
C
102
}
330
C
100
AcDbDictionary
281
     1
  3
Standard
350
18
  0
DICTIONARY
  5
19
102
{ACAD_REACTORS
330
C
102
}
330
C
100
AcDbDictionary
281
     1
  0
ACDBDICTIONARYWDFLT
  5
E
102
{ACAD_REACTORS
330
C
102
}
330
C
100
AcDbDictionary
281
     1
  3
Normal
350
F
100
AcDbDictionaryWithDefault
340
F
  0
DICTIONARY
  5
12A
102
{ACAD_REACTORS
330
C
102
}
330
C
100
AcDbDictionary
281
     1
  0
DICTIONARY
  5
2A
102
{ACAD_REACTORS
330
C
102
}
330
C
100
AcDbDictionary
281
     1
  3
2dWireframe
350
2F
  3
3D Hidden
350
31
  3
3dWireframe
350
30
  3
Basic
350
32
  3
Brighten
350
36
  3
ColorChange
350
3A
  3
Conceptual
350
34
  3
Dim
350
35
  3
Facepattern
350
39
  3
Flat
350
2B
  3
FlatWithEdges
350
2C
  3
Gouraud
350
2D
  3
GouraudWithEdges
350
2E
  3
Linepattern
350
38
  3
Realistic
350
33
  3
Thicken
350
37
  0
LAYOUT
  5
1E
102
{ACAD_REACTORS
330
1A
102
}
330
1A
100
AcDbPlotSettings
  1

  2
none_device
  4

  6

 40
0.0
 41
0.0
 42
0.0
 43
0.0
 44
0.0
 45
0.0
 46
0.0
 47
0.0
 48
0.0
 49
0.0
140
0.0
141
0.0
142
1.0
143
1.0
 70
   688
 72
     0
 73
     0
 74
     5
  7

 75
    16
 76
     0
 77
     2
 78
   300
147
1.0
148
0.0
149
0.0
100
AcDbLayout
  1
Layout1
 70
     1
 71
     1
 10
0.0
 20
0.0
 11
12.0
 21
9.0
 12
0.0
 22
0.0
 32
0.0
 14
1.000000000000000E+20
 24
1.000000000000000E+20
 34
1.000000000000000E+20
 15
-1.000000000000000E+20
 25
-1.000000000000000E+20
 35
-1.000000000000000E+20
146
0.0
 13
0.0
 23
0.0
 33
0.0
 16
1.0
 26
0.0
 36
0.0
 17
0.0
 27
1.0
 37
0.0
 76
     0
330
1B
  0
LAYOUT
  5
26
102
{ACAD_REACTORS
330
1A
102
}
330
1A
100
AcDbPlotSettings
  1

  2
none_device
  4

  6

 40
0.0
 41
0.0
 42
0.0
 43
0.0
 44
0.0
 45
0.0
 46
0.0
 47
0.0
 48
0.0
 49
0.0
140
0.0
141
0.0
142
1.0
143
1.0
 70
   688
 72
     0
 73
     0
 74
     5
  7

 75
    16
 76
     0
 77
     2
 78
   300
147
1.0
148
0.0
149
0.0
100
AcDbLayout
  1
Layout2
 70
     1
 71
     2
 10
0.0
 20
0.0
 11
0.0
 21
0.0
 12
0.0
 22
0.0
 32
0.0
 14
0.0
 24
0.0
 34
0.0
 15
0.0
 25
0.0
 35
0.0
146
0.0
 13
0.0
 23
0.0
 33
0.0
 16
1.0
 26
0.0
 36
0.0
 17
0.0
 27
1.0
 37
0.0
 76
     0
330
23
  0
LAYOUT
  5
22
102
{ACAD_REACTORS
330
1A
102
}
330
1A
100
AcDbPlotSettings
  1

  2
none_device
  4

  6

 40
0.0
 41
0.0
 42
0.0
 43
0.0
 44
0.0
 45
0.0
 46
0.0
 47
0.0
 48
0.0
 49
0.0
140
0.0
141
0.0
142
1.0
143
1.0
 70
  1712
 72
     0
 73
     0
 74
     0
  7

 75
     0
 76
     0
 77
     2
 78
   300
147
1.0
148
0.0
149
0.0
100
AcDbLayout
  1
Model
 70
     1
 71
     0
 10
0.0
 20
0.0
 11
12.0
 21
9.0
 12
0.0
 22
0.0
 32
0.0
 14
1.000000000000000E+20
 24
1.000000000000000E+20
 34
1.000000000000000E+20
 15
-1.000000000000000E+20
 25
-1.000000000000000E+20
 35
-1.000000000000000E+20
146
0.0
 13
0.0
 23
0.0
 33
0.0
 16
1.0
 26
0.0
 36
0.0
 17
0.0
 27
1.0
 37
0.0
 76
     0
330
1F
331
29
  0
MATERIAL
  5
3D
102
{ACAD_REACTORS
330
3B
102
}
330
3B
100
AcDbMaterial
  1
ByBlock
 72
     1
 94
      127
  0
MATERIAL
  5
3C
102
{ACAD_REACTORS
330
3B
102
}
330
3B
100
AcDbMaterial
  1
ByLayer
 72
     1
 94
      127
  0
MATERIAL
  5
3E
102
{ACAD_REACTORS
330
3B
102
}
330
3B
100
AcDbMaterial
  1
Global
 72
     1
 94
      127
  0
MLINESTYLE
  5
18
102
{ACAD_REACTORS
330
17
102
}
330
17
100
AcDbMlineStyle
  2
Standard
 70
     0
  3

 62
   256
 51
90.0
 52
90.0
 71
     2
 49
0.5
 62
   256
  6
BYLAYER
 49
-0.5
 62
   256
  6
BYLAYER
  0
ACDBPLACEHOLDER
  5
F
102
{ACAD_REACTORS
330
E
102
}
330
E
  0
VISUALSTYLE
  5
2F
102
{ACAD_REACTORS
330
2A
102
}
330
2A
100
AcDbVisualStyle
  2
2dWireframe
 70
     4
177
     2
291
     0
 71
     0
176
     1
 72
     2
176
     1
 73
     0
176
     1
 90
        0
176
     1
 40
-0.6
176
     1
 41
-30.0
176
     1
 62
     5
 63
     7
421
 16777215
176
     1
 74
     1
176
     1
 91
        4
176
     1
 64
     7
176
     1
 65
   257
176
     1
 75
     1
176
     1
175
     1
176
     1
 42
1.0
176
     1
 92
        0
176
     1
 66
   257
176
     1
 43
1.0
176
     1
 76
     1
176
     1
 77
     6
176
     1
 78
     2
176
     1
 67
     7
176
     1
 79
     5
176
     1
170
     0
176
     1
171
     0
176
     1
290
     0
176
     1
 93
        1
176
     1
 44
0.0
176
     1
173
     0
176
     1
  0
VISUALSTYLE
  5
31
102
{ACAD_REACTORS
330
2A
102
}
330
2A
100
AcDbVisualStyle
  2
3D Hidden
 70
     6
177
     2
291
     0
 71
     1
176
     1
 72
     2
176
     1
 73
     2
176
     1
 90
        0
176
     1
 40
-0.6
176
     1
 41
-30.0
176
     1
 62
     5
 63
     7
421
 16777215
176
     1
 74
     2
176
     1
 91
        2
176
     1
 64
     7
176
     1
 65
   257
176
     1
 75
     2
176
     1
175
     1
176
     1
 42
40.0
176
     1
 92
        0
176
     1
 66
   257
176
     1
 43
1.0
176
     1
 76
     1
176
     1
 77
     6
176
     1
 78
     2
176
     1
 67
     7
176
     1
 79
     3
176
     1
170
     0
176
     1
171
     0
176
     1
290
     0
176
     1
 93
        1
176
     1
 44
0.0
176
     1
173
     0
176
     1
  0
VISUALSTYLE
  5
30
102
{ACAD_REACTORS
330
2A
102
}
330
2A
100
AcDbVisualStyle
  2
3dWireframe
 70
     5
177
     2
291
     0
 71
     0
176
     1
 72
     2
176
     1
 73
     0
176
     1
 90
        0
176
     1
 40
-0.6
176
     1
 41
-30.0
176
     1
 62
     5
 63
     7
421
 16777215
176
     1
 74
     1
176
     1
 91
        4
176
     1
 64
     7
176
     1
 65
   257
176
     1
 75
     1
176
     1
175
     1
176
     1
 42
1.0
176
     1
 92
        0
176
     1
 66
   257
176
     1
 43
1.0
176
     1
 76
     1
176
     1
 77
     6
176
     1
 78
     2
176
     1
 67
     7
176
     1
 79
     5
176
     1
170
     0
176
     1
171
     0
176
     1
290
     0
176
     1
 93
        1
176
     1
 44
0.0
176
     1
173
     0
176
     1
  0
VISUALSTYLE
  5
32
102
{ACAD_REACTORS
330
2A
102
}
330
2A
100
AcDbVisualStyle
  2
Basic
 70
     7
177
     2
291
     1
 71
     1
176
     1
 72
     0
176
     1
 73
     1
176
     1
 90
        0
176
     1
 40
-0.6
176
     1
 41
-30.0
176
     1
 62
     5
 63
     7
421
 16777215
176
     1
 74
     0
176
     1
 91
        4
176
     1
 64
     7
176
     1
 65
   257
176
     1
 75
     1
176
     1
175
     1
176
     1
 42
1.0
176
     1
 92
        8
176
     1
 66
     7
176
     1
 43
1.0
176
     1
 76
     1
176
     1
 77
     6
176
     1
 78
     2
176
     1
 67
     7
176
     1
 79
     5
176
     1
170
     0
176
     1
171
     0
176
     1
290
     0
176
     1
 93
        1
176
     1
 44
0.0
176
     1
173
     0
176
     1
  0
VISUALSTYLE
  5
36
102
{ACAD_REACTORS
330
2A
102
}
330
2A
100
AcDbVisualStyle
  2
Brighten
 70
    12
177
     2
291
     1
 71
     2
176
     1
 72
     2
176
     1
 73
     0
176
     1
 90
        0
176
     1
 40
-0.6
176
     1
 41
-30.0
176
     1
 62
     5
 63
     7
421
 16777215
176
     1
 74
     1
176
     1
 91
        4
176
     1
 64
     7
176
     1
 65
   257
176
     1
 75
     1
176
     1
175
     1
176
     1
 42
1.0
176
     1
 92
        8
176
     1
 66
     7
176
     1
 43
1.0
176
     1
 76
     1
176
     1
 77
     6
176
     1
 78
     2
176
     1
 67
     7
176
     1
 79
     5
176
     1
170
     0
176
     1
171
     0
176
     1
290
     0
176
     1
 93
        1
176
     1
 44
50.0
176
     1
173
     0
176
     1
  0
VISUALSTYLE
  5
3A
102
{ACAD_REACTORS
330
2A
102
}
330
2A
100
AcDbVisualStyle
  2
ColorChange
 70
    16
177
     2
291
     1
 71
     2
176
     1
 72
     2
176
     1
 73
     3
176
     1
 90
        0
176
     1
 40
-0.6
176
     1
 41
-30.0
176
     1
 62
     5
 63
     8
421
  8421504
176
     1
 74
     1
176
     1
 91
        4
176
     1
 64
     7
176
     1
 65
   257
176
     1
 75
     1
176
     1
175
     1
176
     1
 42
1.0
176
     1
 92
        8
176
     1
 66
     8
424
  8421504
176
     1
 43
1.0
176
     1
 76
     1
176
     1
 77
     6
176
     1
 78
     2
176
     1
 67
     7
176
     1
 79
     5
176
     1
170
     0
176
     1
171
     0
176
     1
290
     0
176
     1
 93
        1
176
     1
 44
0.0
176
     1
173
     0
176
     1
  0
VISUALSTYLE
  5
34
102
{ACAD_REACTORS
330
2A
102
}
330
2A
100
AcDbVisualStyle
  2
Conceptual
 70
     9
177
     2
291
     0
 71
     3
176
     1
 72
     2
176
     1
 73
     0
176
     1
 90
        0
176
     1
 40
-0.6
176
     1
 41
-30.0
176
     1
 62
     5
 63
     7
421
 16777215
176
     1
 74
     2
176
     1
 91
        2
176
     1
 64
     7
176
     1
 65
   257
176
     1
 75
     1
176
     1
175
     1
176
     1
 42
40.0
176
     1
 92
        8
176
     1
 66
     7
176
     1
 43
1.0
176
     1
 76
     1
176
     1
 77
     6
176
     1
 78
     2
176
     1
 67
     7
176
     1
 79
     3
176
     1
170
     0
176
     1
171
     0
176
     1
290
     0
176
     1
 93
        1
176
     1
 44
0.0
176
     1
173
     0
176
     1
  0
VISUALSTYLE
  5
35
102
{ACAD_REACTORS
330
2A
102
}
330
2A
100
AcDbVisualStyle
  2
Dim
 70
    11
177
     2
291
     1
 71
     2
176
     1
 72
     2
176
     1
 73
     0
176
     1
 90
        0
176
     1
 40
-0.6
176
     1
 41
-30.0
176
     1
 62
     5
 63
     7
421
 16777215
176
     1
 74
     1
176
     1
 91
        4
176
     1
 64
     7
176
     1
 65
   257
176
     1
 75
     1
176
     1
175
     1
176
     1
 42
1.0
176
     1
 92
        8
176
     1
 66
     7
176
     1
 43
1.0
176
     1
 76
     1
176
     1
 77
     6
176
     1
 78
     2
176
     1
 67
     7
176
     1
 79
     5
176
     1
170
     0
176
     1
171
     0
176
     1
290
     0
176
     1
 93
        1
176
     1
 44
-50.0
176
     1
173
     0
176
     1
  0
VISUALSTYLE
  5
39
102
{ACAD_REACTORS
330
2A
102
}
330
2A
100
AcDbVisualStyle
  2
Facepattern
 70
    15
177
     2
291
     1
 71
     2
176
     1
 72
     2
176
     1
 73
     0
176
     1
 90
        0
176
     1
 40
-0.6
176
     1
 41
-30.0
176
     1
 62
     5
 63
     7
421
 16777215
176
     1
 74
     1
176
     1
 91
        4
176
     1
 64
     7
176
     1
 65
   257
176
     1
 75
     1
176
     1
175
     1
176
     1
 42
1.0
176
     1
 92
        8
176
     1
 66
     7
176
     1
 43
1.0
176
     1
 76
     1
176
     1
 77
     6
176
     1
 78
     2
176
     1
 67
     7
176
     1
 79
     5
176
     1
170
     0
176
     1
171
     0
176
     1
290
     0
176
     1
 93
        1
176
     1
 44
0.0
176
     1
173
     0
176
     1
  0
VISUALSTYLE
  5
2B
102
{ACAD_REACTORS
330
2A
102
}
330
2A
100
AcDbVisualStyle
  2
Flat
 70
     0
177
     2
291
     1
 71
     2
176
     1
 72
     1
176
     1
 73
     1
176
     1
 90
        2
176
     1
 40
-0.6
176
     1
 41
30.0
176
     1
 62
     5
 63
     7
421
 16777215
176
     1
 74
     0
176
     1
 91
        4
176
     1
 64
     7
176
     1
 65
   257
176
     1
 75
     1
176
     1
175
     1
176
     1
 42
1.0
176
     1
 92
        8
176
     1
 66
     7
176
     1
 43
1.0
176
     1
 76
     1
176
     1
 77
     6
176
     1
 78
     2
176
     1
 67
     7
176
     1
 79
     5
176
     1
170
     0
176
     1
171
     0
176
     1
290
     0
176
     1
 93
       13
176
     1
 44
0.0
176
     1
173
     0
176
     1
  0
VISUALSTYLE
  5
2C
102
{ACAD_REACTORS
330
2A
102
}
330
2A
100
AcDbVisualStyle
  2
FlatWithEdges
 70
     1
177
     2
291
     1
 71
     2
176
     1
 72
     1
176
     1
 73
     1
176
     1
 90
        2
176
     1
 40
-0.6
176
     1
 41
30.0
176
     1
 62
     5
 63
     7
421
 16777215
176
     1
 74
     1
176
     1
 91
        4
176
     1
 64
     7
176
     1
 65
   257
176
     1
 75
     1
176
     1
175
     1
176
     1
 42
1.0
176
     1
 92
        0
176
     1
 66
   257
176
     1
 43
1.0
176
     1
 76
     1
176
     1
 77
     6
176
     1
 78
     2
176
     1
 67
     7
176
     1
 79
     5
176
     1
170
     0
176
     1
171
     0
176
     1
290
     0
176
     1
 93
       13
176
     1
 44
0.0
176
     1
173
     0
176
     1
  0
VISUALSTYLE
  5
2D
102
{ACAD_REACTORS
330
2A
102
}
330
2A
100
AcDbVisualStyle
  2
Gouraud
 70
     2
177
     2
291
     1
 71
     2
176
     1
 72
     2
176
     1
 73
     1
176
     1
 90
        2
176
     1
 40
-0.6
176
     1
 41
30.0
176
     1
 62
     5
 63
     7
421
 16777215
176
     1
 74
     0
176
     1
 91
        4
176
     1
 64
     7
176
     1
 65
   257
176
     1
 75
     1
176
     1
175
     1
176
     1
 42
1.0
176
     1
 92
        0
176
     1
 66
     7
176
     1
 43
1.0
176
     1
 76
     1
176
     1
 77
     6
176
     1
 78
     2
176
     1
 67
     7
176
     1
 79
     5
176
     1
170
     0
176
     1
171
     0
176
     1
290
     0
176
     1
 93
       13
176
     1
 44
0.0
176
     1
173
     0
176
     1
  0
VISUALSTYLE
  5
2E
102
{ACAD_REACTORS
330
2A
102
}
330
2A
100
AcDbVisualStyle
  2
GouraudWithEdges
 70
     3
177
     2
291
     1
 71
     2
176
     1
 72
     2
176
     1
 73
     1
176
     1
 90
        2
176
     1
 40
-0.6
176
     1
 41
30.0
176
     1
 62
     5
 63
     7
421
 16777215
176
     1
 74
     1
176
     1
 91
        4
176
     1
 64
     7
176
     1
 65
   257
176
     1
 75
     1
176
     1
175
     1
176
     1
 42
1.0
176
     1
 92
        0
176
     1
 66
   257
176
     1
 43
1.0
176
     1
 76
     1
176
     1
 77
     6
176
     1
 78
     2
176
     1
 67
     7
176
     1
 79
     5
176
     1
170
     0
176
     1
171
     0
176
     1
290
     0
176
     1
 93
       13
176
     1
 44
0.0
176
     1
173
     0
176
     1
  0
VISUALSTYLE
  5
38
102
{ACAD_REACTORS
330
2A
102
}
330
2A
100
AcDbVisualStyle
  2
Linepattern
 70
    14
177
     2
291
     1
 71
     2
176
     1
 72
     2
176
     1
 73
     0
176
     1
 90
        0
176
     1
 40
-0.6
176
     1
 41
-30.0
176
     1
 62
     5
 63
     7
421
 16777215
176
     1
 74
     1
176
     1
 91
        4
176
     1
 64
     7
176
     1
 65
   257
176
     1
 75
     7
176
     1
175
     7
176
     1
 42
1.0
176
     1
 92
        8
176
     1
 66
     7
176
     1
 43
1.0
176
     1
 76
     1
176
     1
 77
     6
176
     1
 78
     2
176
     1
 67
     7
176
     1
 79
     5
176
     1
170
     0
176
     1
171
     0
176
     1
290
     0
176
     1
 93
        1
176
     1
 44
0.0
176
     1
173
     0
176
     1
  0
VISUALSTYLE
  5
33
102
{ACAD_REACTORS
330
2A
102
}
330
2A
100
AcDbVisualStyle
  2
Realistic
 70
     8
177
     2
291
     0
 71
     2
176
     1
 72
     2
176
     1
 73
     0
176
     1
 90
        0
176
     1
 40
-0.6
176
     1
 41
-30.0
176
     1
 62
     5
 63
     7
421
 16777215
176
     1
 74
     1
176
     1
 91
        0
176
     1
 64
     7
176
     1
 65
   257
176
     1
 75
     1
176
     1
175
     1
176
     1
 42
1.0
176
     1
 92
        8
176
     1
 66
     8
424
  7895160
176
     1
 43
1.0
176
     1
 76
     1
176
     1
 77
     6
176
     1
 78
     2
176
     1
 67
     7
176
     1
 79
     5
176
     1
170
     0
176
     1
171
     0
176
     1
290
     0
176
     1
 93
       13
176
     1
 44
0.0
176
     1
173
     0
176
     1
  0
VISUALSTYLE
  5
37
102
{ACAD_REACTORS
330
2A
102
}
330
2A
100
AcDbVisualStyle
  2
Thicken
 70
    13
177
     2
291
     1
 71
     2
176
     1
 72
     2
176
     1
 73
     0
176
     1
 90
        0
176
     1
 40
-0.6
176
     1
 41
-30.0
176
     1
 62
     5
 63
     7
421
 16777215
176
     1
 74
     1
176
     1
 91
        4
176
     1
 64
     7
176
     1
 65
   257
176
     1
 75
     1
176
     1
175
     1
176
     1
 42
1.0
176
     1
 92
       12
176
     1
 66
     7
176
     1
 43
1.0
176
     1
 76
     1
176
     1
 77
     6
176
     1
 78
     2
176
     1
 67
     7
176
     1
 79
     5
176
     1
170
     0
176
     1
171
     0
176
     1
290
     0
176
     1
 93
        1
176
     1
 44
0.0
176
     1
173
     0
176
     1
  0
ENDSEC
  0
EOF
