<?xml version="1.0" encoding="utf-8"?>
<!-- Generator: Adobe Illustrator 21.1.0, SVG Export Plug-In . SVG Version: 6.00 Build 0)  -->
<svg version="1.1" xmlns="http://www.w3.org/2000/svg" xmlns:xlink="http://www.w3.org/1999/xlink" x="0px" y="0px" width="1372px"
	 height="82.2px" viewBox="0 0 1372 82.2" style="enable-background:new 0 0 1372 82.2;" xml:space="preserve">
<style type="text/css">
	.st0{display:none;}
	.st1{display:inline;fill:#EBEBEB;}
</style>
<g id="Layer_2" class="st0">
	<rect x="-1494.6" y="-320.3" class="st1" width="1919" height="1078.2"/>
</g>
<g id="Layer_1">
	<g>
		<polygon points="179.1,0 160.8,21 139.8,21 132.8,0 91.1,0 74.8,21 55.3,21 48.4,0 19,0 6.2,53.8 197,53.8 209.8,0 		"/>
		<path d="M4.2,61.3L0.2,77.1c0,0,0,0,0,0c-0.7,2.8,1.1,5.1,4,5.1h180.2c2.9,0,5.9-2.3,6.6-5.1l4-15.7H4.2z"/>
	</g>
	<g>
		<path d="M274-0.1h97.4l-4,16.7h-67.1L295.9,35h60.8l-4,16.6H292l-7.2,30.7h-30.3L274-0.1z"/>
		<path d="M370.3,65.9l11.7-49.6l17.3-16.3h90.4l15.3,16.3l-11.7,49.6l-17.3,16.3h-90.4L370.3,65.9z M458.1,63.7l7.1-6.7l7.6-32
			l-6.3-6.7h-49.1l-7.1,6.7l-7.6,32l6.3,6.7H458.1z"/>
		<path d="M548,55.2l-6.4,27h-30.3l19.5-82.3h99.9L644.9,15l-4.2,18l-17.6,16.6l3.8,14.1h11.8l-4.4,18.5h-31.8l-7.3-27H548z
			 M552.2,37.4h53.4l4.7-4.4l3-11.9l-4.1-4.4h-52L552.2,37.4z"/>
		<path d="M652.5,65.9l11.7-49.6l17.3-16.3h88L785,16.2l-3.7,16h-30.4l1.7-7.2l-6.3-6.7h-46.8l-7.1,6.7l-7.6,32l6.3,6.7h46.8L745,57
			l1.8-7.8h30.4l-4,16.6l-17.3,16.3h-88L652.5,65.9z"/>
		<path d="M808.7-0.1h99.9l-4,16.7h-69.5l-3.7,15.7h63.1l-4,16.6h-63.1l-3.9,16.6h69.9l-3.9,16.7H789.3L808.7-0.1z"/>
		<path d="M945,63.1h60.5l-4.5,19.1h-90.8l19.5-82.3H960L945,63.1z"/>
		<path d="M1033.3-0.1h79.9l-4.3,17.9h-24.7l-11,46.5h24.7l-4.2,17.9h-79.9l4.2-17.9h24.9l11-46.5H1029L1033.3-0.1z"/>
		<path d="M1134.3-0.1h43.8l26.5,62.1l14.8-62.1h27.1l-19.6,82.3H1183l-26.4-62.4l-14.8,62.4h-27.1L1134.3-0.1z"/>
		<path d="M1270.4-0.1h99.9l-4,16.7h-69.5l-3.7,15.7h63.1l-4,16.6h-63.1l-3.9,16.6h69.9l-3.9,16.7h-100.3L1270.4-0.1z"/>
	</g>
</g>
</svg>
