<?xml version="1.0" encoding="utf-8"?>
<!-- Generator: Adobe Illustrator 21.1.0, SVG Export Plug-In . SVG Version: 6.00 Build 0)  -->
<svg version="1.1" xmlns="http://www.w3.org/2000/svg" xmlns:xlink="http://www.w3.org/1999/xlink" x="0px" y="0px" width="989.1px"
	 height="82.2px" viewBox="0 0 989.1 82.2" style="enable-background:new 0 0 989.1 82.2;" xml:space="preserve">
<style type="text/css">
	.st0{display:none;}
	.st1{display:inline;fill:#EBEBEB;}
</style>
<g id="Layer_2" class="st0">
	<rect x="-29.6" y="5671.8" class="st1" width="1919" height="1078.2"/>
</g>
<g id="Layer_1">
	<g>
		<path d="M27.2-0.1h100.5L142,15l-6.6,28.4l-16.1,15.1H43.7L38,82.2H7.8L27.2-0.1z M47.9,40.7H102l4.7-4.4l3.7-15.3l-4.1-4.4H53.6
			L47.9,40.7z"/>
		<path d="M237.1,52.1h-56.5l-7.1,30.1h-30.3l19.5-82.3H193l-7.6,32H242l7.6-32h30.3l-19.5,82.3h-30.3L237.1,52.1z"/>
		<path d="M337.8-0.1h43.1l26.6,82.3h-31.8L371,66.9h-54.4l-11.5,15.3H273L337.8-0.1z M330.6,48.4h34.9l-9.8-33.2L330.6,48.4z"/>
		<path d="M439.5-0.1h43.8L509.8,62l14.8-62.1h27.1L532,82.2h-43.9l-26.4-62.4L447,82.2h-27.1L439.5-0.1z"/>
		<path d="M632.9,19l-15.1,63.2h-30.3L602.6,19h-41.1l4.5-19.1h112.6L674,19H632.9z"/>
		<path d="M675.1,65.9l11.7-49.6l17.3-16.3h90.4l15.3,16.3l-11.7,49.6l-17.3,16.3h-90.4L675.1,65.9z M762.9,63.7L770,57l7.6-32
			l-6.3-6.7h-49.1l-7.1,6.7l-7.6,32l6.3,6.7H762.9z"/>
		<path d="M835.6-0.1h45.3l11,62.7l42.5-62.7h47.8l-19.6,82.3h-29.3l15.1-63.1l-42.4,63.1h-36.7L858,18.7l-15.2,63.5H816L835.6-0.1z
			"/>
	</g>
</g>
</svg>
