<?xml version="1.0" encoding="utf-8"?>
<!-- Generator: Adobe Illustrator 21.1.0, SVG Export Plug-In . SVG Version: 6.00 Build 0)  -->
<svg version="1.1" xmlns="http://www.w3.org/2000/svg" xmlns:xlink="http://www.w3.org/1999/xlink" x="0px" y="0px" width="1262px"
	 height="82.2px" viewBox="0 0 1262 82.2" style="enable-background:new 0 0 1262 82.2;" xml:space="preserve">
<style type="text/css">
	.st0{display:none;}
	.st1{display:inline;fill:#EBEBEB;}
</style>
<g id="Layer_2" class="st0">
	<rect x="-1494.6" y="-320.3" class="st1" width="1919" height="1078.2"/>
</g>
<g id="Layer_1">
	<g>
		<polygon points="179.1,0 160.8,21 139.8,21 132.8,0 91.1,0 74.8,21 55.3,21 48.4,0 19,0 6.2,53.8 197,53.8 209.8,0 		"/>
		<path d="M4.2,61.3L0.2,77.1c0,0,0,0,0,0c-0.7,2.8,1.1,5.1,4,5.1h180.2c2.9,0,5.9-2.3,6.6-5.1l4-15.7H4.2z"/>
	</g>
	<g>
		<path d="M274-0.1h100.5L388.7,15l-6.6,28.4L366,58.6h-75.6l-5.6,23.6h-30.3L274-0.1z M294.6,40.7h54.1l4.7-4.4l3.7-15.3l-4.1-4.4
			h-52.6L294.6,40.7z"/>
		<path d="M429.1,55.2l-6.4,27h-30.3l19.5-82.3h99.9L526,15l-4.2,18l-17.6,16.6l3.8,14.1h11.8l-4.3,18.5h-31.8l-7.3-27H429.1z
			 M433.3,37.4h53.4l4.7-4.4l3-11.9l-4.1-4.4h-52L433.3,37.4z"/>
		<path d="M551.5-0.1h99.9l-4,16.7h-69.5l-3.7,15.7h63.1l-4,16.6h-63.1l-3.9,16.6h69.9l-3.9,16.7H532L551.5-0.1z"/>
		<path d="M652,68.2l2.4-10.1h30.3l-1.1,4.3l2.1,2.3h53l1.9-1.8l2.1-9.3l-1.1-1.2l-68.5-4.8l-12.5-13.4L665,15l16.1-15.1H769
			l13.1,14L779.7,24h-30.3l1.1-4.5l-2.1-2.3h-52l-1.9,1.8l-2,8.9l1.1,1.2l68.5,4.8l12.5,13.4L769.9,67l-16.1,15.1h-88.7L652,68.2z"
			/>
		<path d="M861.8,19l-15.1,63.2h-30.3L831.5,19h-41.1l4.5-19.1h112.6L903,19H861.8z"/>
		<path d="M918.9-0.1h79.9l-4.3,17.9h-24.7l-11,46.5h24.7l-4.2,17.9h-79.9l4.2-17.9h24.9l11-46.5h-24.9L918.9-0.1z"/>
		<path d="M1001.4,65.9l11.7-49.6l17.3-16.3h92.5l13.7,14.6l-2.6,10.7h-30.3l1.1-4.8l-1.9-2h-54.6l-7.1,6.7l-7.7,32.9l6.3,6.7h52.7
			l2.5-2.4l2.7-11.3h-43.2l3.8-16.1h73.3l-7.7,32.2l-16.1,15.1h-91.4L1001.4,65.9z"/>
		<path d="M1160.9-0.1h99.9l-4,16.7h-69.5l-3.7,15.7h63.1l-4,16.6h-63.1l-3.9,16.6h69.9l-3.9,16.7h-100.3L1160.9-0.1z"/>
	</g>
</g>
</svg>
