<?xml version="1.0" encoding="utf-8"?>
<!-- Generator: Adobe Illustrator 21.1.0, SVG Export Plug-In . SVG Version: 6.00 Build 0)  -->
<svg version="1.1" xmlns="http://www.w3.org/2000/svg" xmlns:xlink="http://www.w3.org/1999/xlink" x="0px" y="0px" width="1091px"
	 height="82.2px" viewBox="0 0 1091 82.2" style="enable-background:new 0 0 1091 82.2;" xml:space="preserve">
<style type="text/css">
	.st0{display:none;}
	.st1{display:inline;fill:#EBEBEB;}
</style>
<g id="Layer_2" class="st0">
	<rect x="-1494.6" y="-320.3" class="st1" width="1919" height="1078.2"/>
</g>
<g id="Layer_1">
	<g>
		<polygon points="179.1,0 160.8,21 139.8,21 132.8,0 91.1,0 74.8,21 55.3,21 48.4,0 19,0 6.2,53.8 197,53.8 209.8,0 		"/>
		<path d="M4.2,61.3L0.2,77.1c0,0,0,0,0,0c-0.7,2.8,1.1,5.1,4,5.1h180.2c2.9,0,5.9-2.3,6.6-5.1l4-15.7H4.2z"/>
	</g>
	<g>
		<path d="M291.2,55.2l-6.4,27h-30.3L274-0.1h99.9L388.1,15l-4.2,18l-17.6,16.6l3.8,14.1h11.8l-4.3,18.5h-31.8l-7.3-27H291.2z
			 M295.4,37.4h53.4l4.7-4.4l3-11.9l-4.1-4.4h-52L295.4,37.4z"/>
		<path d="M413.6-0.1h99.9l-4,16.7H440l-3.7,15.7h63.1l-4,16.6h-63.1l-3.9,16.6h69.9l-3.9,16.7H394.1L413.6-0.1z"/>
		<path d="M534.7-0.1h43.8L604.9,62l14.8-62.1h27.1l-19.6,82.3h-43.9l-26.4-62.4l-14.8,62.4h-27.1L534.7-0.1z"/>
		<path d="M652.9,65.9l11.7-49.6L682-0.1h90.4l15.3,16.3L776,65.9l-17.3,16.3h-90.4L652.9,65.9z M740.7,63.7l7.1-6.7l7.6-32
			l-6.3-6.7h-49.1l-7.1,6.7l-7.6,32l6.3,6.7H740.7z"/>
		<path d="M803-0.1h29.1l0.7,61.1l33-61.1h38.4l5,61.1l28.7-61.1h26.1l-41.2,82.3h-38.3l-4.3-62l-32.7,62h-41.3L803-0.1z"/>
		<path d="M977.2-0.1h43.8l26.5,62.1l14.8-62.1h27.1l-19.6,82.3h-43.9l-26.4-62.4l-14.8,62.4h-27.1L977.2-0.1z"/>
	</g>
</g>
</svg>
